<svg xmlns="http://www.w3.org/2000/svg" viewBox="0 0 27 28.62">
  <title>clock</title>
  <g id="Layer_2" data-name="Layer 2">
    <g id="Objects">
      <path d="M24,22.8A12.89,12.89,0,0,0,25.41,11l.42-.62A6.64,6.64,0,0,0,15.58,2L15,2.66a13,13,0,0,0-1.71-.13c-.41,0-.82,0-1.23.06l-.77-.74A6.64,6.64,0,0,0,.8,9.79l.45.83A12.93,12.93,0,0,0,3,23.44l-1.6,2.3A1.69,1.69,0,0,0,1.47,28l.08.08a1.71,1.71,0,0,0,1.21.5,1.6,1.6,0,0,0,1.14-.46L6,26.27a12.83,12.83,0,0,0,7.25,2.22A13,13,0,0,0,21,25.91l2.47,2.21A1.72,1.72,0,0,0,25.94,28a1.69,1.69,0,0,0,.08-2.3Z" style="fill: #fff"/>
      <path d="M22.66,22.79a11.9,11.9,0,1,0-18.32.6l-2.11,3a.61.61,0,0,0,0,.86l.07.07a.61.61,0,0,0,.86,0l2.76-2.47A11.88,11.88,0,0,0,21,24.49l3.2,2.86a.61.61,0,0,0,.86,0l.07-.07a.61.61,0,0,0,0-.86Zm-9.4,2.63a9.91,9.91,0,1,1,9.91-9.91A9.91,9.91,0,0,1,13.25,25.42Z" style="fill: #37bcd3"/>
      <path d="M13.22,6.86a8.62,8.62,0,1,0,8.62,8.62A8.62,8.62,0,0,0,13.22,6.86Zm5.64,11.8v0c-.15.27-.29.23-.51.1l-4-2a1.7,1.7,0,0,1-.39.24l0,.53c0,.25-.46.53-.77.53h0c-.31,0-.88-.28-.88-.53l0-.59a1.74,1.74,0,0,1-.77-1.44s0-.06,0-.08l-.31-.16c-.22-.13-.12-.61,0-.88v0c.15-.27.58-.68.8-.55l.3.21.18-.09.24-2.77a.71.71,0,0,1,0-.3l.1-1c0-.25,0-.36.34-.36h0c.31,0,.34,0,.34.3L13.94,14a1.65,1.65,0,0,1,1,1.5v0l3.74,2.62C18.87,18.27,19,18.39,18.86,18.66Z" style="fill: #37bcd3"/>
      <path d="M10.5,2.64A5.56,5.56,0,0,0,1.75,9.28,12,12,0,0,1,10.5,2.64Z" style="fill: #37bcd3"/>
      <path d="M24.94,9.79a5.56,5.56,0,0,0-8.59-7A11.59,11.59,0,0,1,24.94,9.79Z" style="fill: #37bcd3"/>
    </g>
  </g>
</svg>
