<svg xmlns="http://www.w3.org/2000/svg" viewBox="0 0 62 84.5" width="62">
  <title>fb</title>
  <g id="Layer_2" data-name="Layer 2">
    <g id="OBJECTS">
      <g>
        <g>
          <path d="M52.25,29.14c8.31,13,7.4,17.46-6.49,32-4.43.31-8.39,4.76-13.22,1.48-1.29-7.42,4-12.22,8.16-18.77-10-2.22-20-3.27-26.62-11.4-3.83-3.06-6-6.31-3.72-11.69,1.74-4.08,2.42-8.66,3.29-13.09l0,0C19.89,2.09,26.39.79,33.42,6.5A13.39,13.39,0,0,0,40.26,9c12.69,1.74,14.35,4.2,11.8,17.13A4.09,4.09,0,0,0,52.25,29.14Z" style="fill: #395398;fill-rule: evenodd"/>
          <path d="M13.64,7.66C13.72,12.52,14.82,17.59,12,22c-3.42,5.29,3.39,5.9,3.95,9.3C19.55,37,23.6,42.13,29.61,45.66,33.52,48,35.7,51.54,33.77,56.4c-3.54,2.89-7,1-9.41-1.19-6.46-6-14.58-9.6-21.28-15.2a28.35,28.35,0,0,1-1.94-2.37C2.58,26.51,9.17,17.53,13.64,7.66Z" style="fill: #415fa3;fill-rule: evenodd"/>
          <path d="M52.25,29.14c-2.43-1.55-1-3.46-.8-5.49C52.1,16.53,52,9.84,41.4,12c-2.6.52-5.9.93-7.87-1.6-5.85-7.5-12.59-6.92-19.92-2.66,4-4.29,25.64-9.43,30-7.15C53.72,5.83,56.25,14.18,52.25,29.14Z" style="fill: #415fa3;fill-rule: evenodd"/>
          <path d="M1.14,37.64c.67,0,1.34,0,2,0,1.18,2.19,3.27,3.8,4.05,6.21C10,52.4,15.92,56.4,24.69,56.72c2.85.1,5.68.56,7.72,3L33,61.1c4.25,3.67,8.51-1.75,12.76,0-5.45,3.8-11,6.2-17.42,2-2-1.33-4.13-1.1-5.38,1.26-4.61,8.73-10,3.75-13.23-.31C3.81,56.54-2.67,48.58,1.14,37.64Z" style="fill: #6994d1;fill-rule: evenodd"/>
          <path d="M22.49,78.61c.15-2.15,1-3.64,3.13-3.38,3,.36,3.93,2.78,3.75,5.25-.14,1.88-.83,4.7-3.56,3.87C23.37,83.61,22.9,80.81,22.49,78.61Z" style="fill: #5479ba;fill-rule: evenodd"/>
          <path d="M58.37,55.92A4.16,4.16,0,0,1,62,60.33c0,2.65-1.81,3.52-4.16,3.36s-3.93-1.42-3.58-4A4.06,4.06,0,0,1,58.37,55.92Z" style="fill: #5479ba;fill-rule: evenodd"/>
          <path d="M2.5,68.56c-.25-1.68.66-2.17,1.68-1.93A3.26,3.26,0,0,1,6.3,68.21a1.31,1.31,0,0,1-1.64,1.73A7.2,7.2,0,0,1,2.5,68.56Z" style="fill: #6994d1;fill-rule: evenodd"/>
          <path d="M33,56.86c.41-4.33-1.07-8.4-5.09-9.6-8.28-2.47-10-9.18-12-16,6.31,5.5,13.28,9.21,22,8.58,2.87-.2,6,.1,6.86,3.56.77,3.13-2,4.17-4.15,5.36-4.82,2.72-4.1,8.84-7.65,12.32l-.05,0C31.81,59.71,31.64,58.28,33,56.86Z" style="fill: #36568e;fill-rule: evenodd"/>
          <path d="M33,56.86q0,2.15,0,4.28c-2-.7-3.91-1.78-5.95-2C8.18,56.75,8.18,56.79,3.15,37.68Z" style="fill: #5479ba;fill-rule: evenodd"/>
        </g>
        <path d="M38.09,65.73V44.49h7.13l1.07-8.28h-8.2V30.92c0-2.4.67-4,4.1-4h4.39V19.48a58.88,58.88,0,0,0-6.39-.33c-6.32,0-10.65,3.86-10.65,10.95V36.2H22.39v8.28h7.15V65.73Z" style="fill: #fff"/>
      </g>
    </g>
  </g>
</svg>
