<svg xmlns="http://www.w3.org/2000/svg" viewBox="0 0 60 54.85" width="60">
  <title>inst_1</title>
  <g id="Layer_2" data-name="Layer 2">
    <g id="OBJECTS">
      <g>
        <g>
          <g>
            <path d="M5,14C1.83,8,2.69,5,10,2S49.59-.45,47.22,2s.49,1.72-.36,2.43C44.37,6,41.56,5.94,38.77,6c-6.44.08-12.89,0-19.34,0-4.89,0-8.75,1.65-11,6.25C7.57,13.39,6.57,14.23,5,14Z" style="fill: #b02a9e;fill-rule: evenodd"/>
            <path d="M45.7,4.12q0-.84,0-1.68h1.69c1.35,2.4,4.12,1.13,5.9,2.28,2.23,1.43,1.64,2.43-.7,2.88-1.56,1.33-.51,3.59-1.77,5q0,1.65,0,3.31c-4.62.1-5.54-4-7.64-6.75C42.47,6.72,43.81,5.28,45.7,4.12Z" style="fill: #972aab;fill-rule: evenodd"/>
            <path d="M5,14l1.78-1.85c7-7.94,17-6.41,24.59-4.26s14.84,7.15,22.06,11.27c4,3.92,4.45,8.44,2.33,13.41a3.41,3.41,0,0,1-1.85,3.21c-1.67,1.77-1.35,4.32-2.47,6.31-2.54,2.68-6.72,4-9.1,2.67-6.57-3.81-8.45-.1-10.3,4.84C19.23,56.22,20,55.16,9.66,44.32.22,34.44-.21,25.14,5,14Z" style="fill: #f04471;fill-rule: evenodd"/>
            <path d="M52.31,20.62c-2.09.4-1.91-7.85-6.06-1.31-1.6,2.53-3.32-1.43-4.78-2.78C32.32,8.05,16.81,6.09,6.82,12.15,8,6,11.93,3.51,18,3.68c6.9.19,13.81.14,20.72.19,2.22,1.69,3.42,4.8,6.8,4.85,3.38,1.16,4.12,4.94,6.78,6.81l1.76,1.62C55.13,19.14,53.49,19.76,52.31,20.62Z" style="fill: #cf2a8c;fill-rule: evenodd"/>
            <path d="M32.08,49.61c2.48-4.6-3.35-2.73-4.25-5.7a17,17,0,0,0,13.86-6.44c3,2.82-.39,4.08.15,6.36,3.32.52,6.09-1,8.75-2.87,3.16-.21,2.73,1.42,1.72,3.35Z" style="fill: #cf2a8c;fill-rule: evenodd"/>
            <path d="M52.31,20.62l1.78-3.47c4.59,4.7,9.74,9.34,1.7,15.43C54.71,28.57,56,23.87,52.31,20.62Z" style="fill: #9f2aa6;fill-rule: evenodd"/>
            <path d="M52.31,44.3C52.2,42.95,52,41.65,50.59,41c0-2.44.92-4.31,3.36-5.16C52.12,38.38,58.57,42.57,52.31,44.3Z" style="fill: #9f2aa6;fill-rule: evenodd"/>
            <path d="M50.82,13c-.92-2.21-3.17-5.76,1.5-6,2.36-.85,3.84,5,3.84,5S51.57,15.34,50.82,13Z" style="fill: #b02a9e;fill-rule: evenodd"/>
            <path d="M45.56,8.72a18.86,18.86,0,0,1-1.5,2.52c-3.23-1.35-5.53-3.49-5.31-7.37l8.47-.16Z" style="fill: #b52a9b;fill-rule: evenodd"/>
          </g>
          <path d="M11.85,53.3l-1.61-.5C3.53,51,1.47,44.76.48,39.66S.28,28.86.55,23.41c1.12-3.48,3.63-5.1,7.17-5.33a2.24,2.24,0,0,1,2.43.13c1.53.46,2.93-.48,4.43-.42,2.32.69,4.36,2.74,4.25,4.54-.29,5,2.44,5,5.88,4.6,7.67,5.57,6.82,5.41,3.53,14.69C25.24,50.07,19.92,53.07,11.85,53.3Z" style="fill: #f38259;fill-rule: evenodd"/>
          <path d="M4.93,49.35q-1.5-.13-3-.29l.29-3c4.49-2,2.71-7.12,5-10.09,2.92-3.71,4.6-2.51,5,1.73,2.1,3,6.28,1.52,8.63,4l5.87.58c-.6,8.23-8,9.16-13.28,12.42C9,55.52,6.68,52.9,4.93,49.35Z" style="fill: #f5ab4a;fill-rule: evenodd"/>
        </g>
        <g>
          <path d="M34.67,43.24H20.49A11.42,11.42,0,0,1,9.08,31.83V19.33A11.42,11.42,0,0,1,20.49,7.92H34.67A11.42,11.42,0,0,1,46.08,19.33V31.83A11.42,11.42,0,0,1,34.67,43.24ZM20.49,10.46a8.89,8.89,0,0,0-8.88,8.88V31.83a8.89,8.89,0,0,0,8.88,8.88H34.67a8.89,8.89,0,0,0,8.88-8.88V19.33a8.89,8.89,0,0,0-8.88-8.88Z" style="fill: #fff"/>
          <path d="M27.58,35.74A10.16,10.16,0,1,1,37.74,25.58,10.17,10.17,0,0,1,27.58,35.74Zm0-17.78a7.62,7.62,0,1,0,7.62,7.62A7.63,7.63,0,0,0,27.58,18Z" style="fill: #fff"/>
          <circle cx="37.58" cy="15.74" r="2.11" style="fill: #fff"/>
        </g>
      </g>
    </g>
  </g>
</svg>
