<svg xmlns="http://www.w3.org/2000/svg" xmlns:xlink="http://www.w3.org/1999/xlink" viewBox="0 0 21.35 23.34">
  <defs>
    <linearGradient id="linear-gradient" x1="3.22" y1="11.61" x2="18" y2="11.61" gradientUnits="userSpaceOnUse">
      <stop offset="0" stop-color="#a7a7a7"/>
      <stop offset="0.1" stop-color="#adadad"/>
      <stop offset="0.24" stop-color="#bdbdbd"/>
      <stop offset="0.39" stop-color="#d8d8d8"/>
      <stop offset="0.47" stop-color="#e9e9e9"/>
      <stop offset="0.87" stop-color="#a7a7a7"/>
    </linearGradient>
    <clipPath id="clip-path">
      <path d="M19.11,12a8.5,8.5,0,1,1-8.5-8.51A8.51,8.51,0,0,1,19.11,12Z" style="fill: none"/>
    </clipPath>
    <radialGradient id="radial-gradient" cx="9.96" cy="10.99" r="2.39" gradientTransform="translate(-44.93 -50.95) scale(5.23 5.23)" gradientUnits="userSpaceOnUse">
      <stop offset="0.05" stop-color="#fff"/>
      <stop offset="0.23" stop-color="#c1c1c1"/>
      <stop offset="0.44" stop-color="#7d7e7d"/>
      <stop offset="0.63" stop-color="#474847"/>
      <stop offset="0.79" stop-color="#212121"/>
      <stop offset="0.92" stop-color="#090a09"/>
      <stop offset="1" stop-color="#000100"/>
    </radialGradient>
    <radialGradient id="radial-gradient-2" cx="11.67" cy="12.84" r="1.96" xlink:href="#radial-gradient"/>
    <radialGradient id="radial-gradient-3" cx="9.97" cy="12.95" r="1.6" xlink:href="#radial-gradient"/>
  </defs>
  <title>stone</title>
  <g style="isolation: isolate">
    <g id="Layer_2" data-name="Layer 2">
      <g id="Layer_1-2" data-name="Layer 1">
        <path d="M18,11.61a7.39,7.39,0,1,1-7.38-7.4A7.4,7.4,0,0,1,18,11.61Z" style="fill: url(#linear-gradient)"/>
        <g style="clip-path: url(#clip-path)">
          <g>
            <path d="M16.21,1.75A15.65,15.65,0,0,0,10.8.16a.12.12,0,0,1,0,.06l0-.06A23.29,23.29,0,0,0,6.54,0C3.82,2.64,1.24,6,.59,9.69c-.56,3.13-1.4,7.7,1.23,10,4.67,4.07,14.5,5.82,17.78-.52C22.36,13.83,22.3,4.92,16.21,1.75Z" style="fill: #fff"/>
            <path d="M1.48,7.32l.1.06c-.23.34-.47.66-.68,1,0,.1,0,.2-.08.31a.8.8,0,0,0,.35.21c.45.43,1,.79,1.45,1.2l-.44.16a3.35,3.35,0,0,1-1.48,0c0,.06.06.19.08.24h.1c0,.41-.09.81-.11,1.21a1.43,1.43,0,0,1-.53.08c-.41,2.84-.52,6.1,1.57,7.92,4.67,4.07,14.5,5.82,17.78-.52,2.77-5.34,2.7-14.25-3.39-17.41A14.79,14.79,0,0,0,12.44.43a6.09,6.09,0,0,0-.65.84,4.44,4.44,0,0,1-1.05.49A6.84,6.84,0,0,0,10.66.14,24.61,24.61,0,0,0,6.54,0,21.51,21.51,0,0,0,1.33,7.21Z" style="fill: #fff"/>
            <path d="M7.42,0c.71.6,1.52,1.08,2.2,1.71A6.08,6.08,0,0,1,7.35.18,1.15,1.15,0,0,1,7.19,0L6.54,0C6,.57,5.46,1.11,5,1.69l.19.15-.34.62L4.34,2.4a2.8,2.8,0,0,0-.19.24h.2c.8-.09,1.6-.1,2.41-.13S8.25,2.43,9,2.43c-.14.28-.29.57-.43.86l.23.07a6.49,6.49,0,0,0,.71.15,6.19,6.19,0,0,0,2.43,0A7.74,7.74,0,0,1,10.7,5.87l-.46-.35c0,.35-.06.7-.11,1l-.28-.19a8.53,8.53,0,0,0,.77,2c-.09-.75.16-1.8,1-2,.06-.13.13-.24.19-.36l.06-.13c-.24-.21-.46,0-.66.18a1.81,1.81,0,0,1,.38-1.13,3.15,3.15,0,0,0,.64-1.46c.23,0,.45,0,.66-.06L13,3.23c-.09-.18-.19-.36-.28-.54l-.09-.15a8,8,0,0,0-1.1-.09,12.53,12.53,0,0,0-.86,1c0-.39,0-.77,0-1.15a8.12,8.12,0,0,0-1.54,0,5.15,5.15,0,0,1-1.81.05l.63-.13c0-.3,0-.6,0-.9A13.31,13.31,0,0,0,9.31,2c.45,0,.9-.09,1.34-.12l-.1-.14A19.49,19.49,0,0,1,8.93,0C8.43,0,7.92,0,7.42,0Z" style="fill: #fff"/>
            <path d="M6.08,3h.29c.31,0,.62.1.93.16.11.37.23.73.34,1.09.39,1.32.1,2.8.78,4,.11.23.24.43.37.66l.33-1c.11.22.22.43.33.65.37.84.83,1.68,1.17,2.54,0,.14,0,.27,0,.4v.09a3.55,3.55,0,0,1-.1.43c-.3-.31-.58-.63-.88-.95l.17-.26a7.49,7.49,0,0,0-.93-1.5,7.08,7.08,0,0,1,.11,1c-.51-.57-1-1.16-1.51-1.73-.11-.12-.21-.25-.32-.38S7,8,6.95,7.91c-.45-1-.69-2.12-1.16-3.12l.26,0,.8.15C6.61,4.3,6.25,3.68,6.08,3ZM7,5.37a.33.33,0,0,0,.13.44C7.32,5.75,7.19,5.32,7,5.37Z" style="fill: #fff"/>
            <path d="M13.37,3.27l.66,0,.35,0c-.13.45-.28.89-.41,1.33l.78.05c-.05.15-.09.3-.12.44l1-.12c-.42.88-.67,1.84-1.06,2.73a9.07,9.07,0,0,1-.32,1.18l-.43-.14c-.49.48-.91,1-1.38,1.51,0-.27-.06-.54-.06-.81A3.06,3.06,0,0,0,12.2,7.5c-.06-.22-.13-.43-.18-.64A22.15,22.15,0,0,1,13.37,3.27Zm.17,4c.7-.4.77-1.26.88-2A10.17,10.17,0,0,0,13.54,7.31Z" style="fill: #fff"/>
            <path d="M16.07,4.75c.16-.24.36-.45.55-.67,0,.23,0,.47,0,.7s-.07.46-.1.7l.07,0c.29.14.59.27.88.42l-.08.14A11.4,11.4,0,0,0,15.25,7,9.92,9.92,0,0,1,16.07,4.75Z" style="fill: #fff"/>
            <g>
              <path d="M20.13,12.23c0,.17.08.33.13.5-1.78-.11-3.53-.46-5.32-.4.2.08.4.18.59.25,1.27,0,2.49.2,3.75.28a3,3,0,0,1,1.44.3c-1.45,0-2.89-.32-4.34-.39l.32.26c-.52-.09-1-.18-1.56-.32-1-.26-2-.45-2.91-.74a4,4,0,0,0-1.37.18,1.56,1.56,0,0,0,1.76.17c.21.06.4.12.61.2.68.29,1.42.4,2.13.62a7.54,7.54,0,0,0,.85.25c1.53.24,3.08-.12,4.61.08a2.09,2.09,0,0,1,.42.12c0-.32.05-.64.08-1C20.92,12.51,20.53,12.35,20.13,12.23Z" style="fill: #fff"/>
              <path d="M19.88,7.56c.21.43.46.84.7,1.25A26.85,26.85,0,0,1,17.32,10a11.76,11.76,0,0,0-1.4.54,9.16,9.16,0,0,1,1.05.22,12.85,12.85,0,0,1-1.4.22v-.36l-.36-.18L15,10.41l-.89-.12c-.61-.1-1.1.41-1.55.75,1.1.17,2.23.08,3.33.23H16a5.71,5.71,0,0,1,2-.19,1.61,1.61,0,0,1-.12-.17,2.42,2.42,0,0,1,.67-.52,3.87,3.87,0,0,1,1.1.18c.27.09.54.18.79.29.07.33.13.65.2,1l.71.12c0-.37,0-.73,0-1.11a.62.62,0,0,1-.23-.39l.17,0A13.75,13.75,0,0,0,21,8.22a7.94,7.94,0,0,1-.67-.9C20.18,7.38,20,7.51,19.88,7.56Z" style="fill: #fff"/>
            </g>
            <path d="M12.24,13.05l.63.43a3.41,3.41,0,0,0,1.69,1.33c0,.11.09.23.15.35.33,1,.76,1.89,1.09,2.86,0,0,.05.15.06.2l-.59-.3a5.59,5.59,0,0,0,.64,1c0-.17.09-.33.14-.5l.53-.24.27.21-.53.73.39.31a2.36,2.36,0,0,1,.28.21s-.09.14-.11.19a4.81,4.81,0,0,1-1.1-.78,2.91,2.91,0,0,0-1-1.08l.45-.12c-1.11-1.47-2.67-2.57-3.54-4.23l.54-.05C12.2,13.41,12.22,13.24,12.24,13.05Z" style="fill: #fff"/>
            <path d="M12.88,19a4.85,4.85,0,0,0,2,2.21l.51.54c-.41.31-.82.6-1.2.94a7.42,7.42,0,0,1-1.35-1.84c0-.26.05-.53.08-.81l.44.07C13.21,19.72,13,19.36,12.88,19Z" style="fill: #636569"/>
            <path d="M14.36,14.31a3,3,0,0,1,1.19.88,3.34,3.34,0,0,1,.67,1.34c-.65-.3-.89-1.06-1.52-1.37-.06-.12-.1-.24-.15-.35Z" style="fill: #808286"/>
            <path d="M11.22,21.09l.41-.57c-.09.29-.16.59-.23.88-.17,0-.36.07-.54.1.07-.2.13-.39.18-.58Z" style="fill: #646565"/>
            <path d="M6.41,14.32l.42-.21c-.19.57-.4,1.13-.61,1.69-.07.11-.13.21-.19.31a11.25,11.25,0,0,1-2,1.72l-.12-.1,0-.07c.36-.64.73-1.27,1.13-1.89l.11-.17A3.08,3.08,0,0,0,6.41,14.32Z" style="fill: #3a3c47"/>
            <path d="M4.37,8.11A8.8,8.8,0,0,0,7,9c0-.08,0-.24.06-.31s.06-.3.1-.45c.1.13.2.26.32.38a3,3,0,0,0-.35.26c.11.44.26.89.41,1.32a8.85,8.85,0,0,1-1.27.14c.26-.14.52-.27.79-.39l-.93-.53a16.6,16.6,0,0,0-1.88-.94C4.27,8.34,4.33,8.22,4.37,8.11ZM6.22,9.29l.43.25A.9.9,0,0,0,6.86,9,1.94,1.94,0,0,0,6.22,9.29Z" style="fill: #bababa"/>
            <path d="M10.61,11.5l.61-.35-.32.52c-.1.13-.19.24-.29.38,0-.16,0-.31,0-.46Z" style="fill: #494a49"/>
            <path d="M2.23,10.56l.36,0a1.94,1.94,0,0,0,.51,0l.13.19c0,.08,0,.17,0,.25l-.51,0C2.55,10.87,2.4,10.72,2.23,10.56Z" style="fill: #858f9b"/>
            <path d="M6.22,9.29A1.94,1.94,0,0,1,6.86,9a.9.9,0,0,1-.22.54Z" style="fill: #99999b"/>
            <path d="M18.36,17.57a9.43,9.43,0,0,0,.87,1.54l-.28.21a6.62,6.62,0,0,0-.77-1.5l0,0A2.19,2.19,0,0,1,18.36,17.57Z" style="fill: #f8f9fa"/>
            <path d="M3,10.43l1.12.15-.59.12.63.23a9.39,9.39,0,0,1-.94.08c0-.08,0-.17,0-.25l-.13-.19Z" style="fill: #cdd2da"/>
            <path d="M10.6,12.26c.13.18.25.35.35.54a14.47,14.47,0,0,0,.81,1.65,16.35,16.35,0,0,0,1.47,2.8c-.19-.06-.5,0-.61-.19-.28-.48-.45-1-.75-1.49-.16-.31-.29-.61-.43-.92a10.62,10.62,0,0,1-.55-1.23c-.07-.2-.15-.39-.24-.59,0,.2-.06.4-.08.6l-.29-.08c.06-.23.1-.48.15-.72l0-.1C10.51,12.46,10.56,12.32,10.6,12.26Z" style="fill: #fcfefe"/>
            <path d="M11.57,1.95c.82-.05,1.33-.79,2.12-.87.22.59-.53.78-.81,1.15A5.54,5.54,0,0,1,11.57,1.95Z" style="fill: #777a74"/>
            <path d="M7.88,1.28A13.31,13.31,0,0,0,9.31,2l-.48,0,.27.19a5.15,5.15,0,0,1-1.81.05l.63-.13C7.9,1.88,7.88,1.58,7.88,1.28Z" style="fill: #d5d6d7"/>
            <path d="M13.58,2.31a6.34,6.34,0,0,1,1.21-.94c-.08.25-.14.51-.2.77l.26,0c.06.11.12.23.17.34l-.36.09A10.73,10.73,0,0,0,13.58,2.31Z" style="fill: #7e7d7e"/>
            <path d="M9.31,2c.45,0,.9-.09,1.34-.12h.08l.5,0,.14.07-.45.19.79,0-.2.18a12.53,12.53,0,0,0-.86,1c0-.39,0-.77,0-1.15a8.12,8.12,0,0,0-1.54,0l-.27-.19Z" style="fill: #a8a7a9"/>
            <path d="M11.23,2l.34,0a5.54,5.54,0,0,0,1.3.27l.71.09a10.73,10.73,0,0,1,1.07.22l.1,0a5.79,5.79,0,0,0-2.14,0,8,8,0,0,0-1.1-.09l.2-.18-.79,0L11.37,2Z" style="fill: #cbd7ea"/>
            <path d="M4.35,2.63c.8-.09,1.6-.1,2.41-.13a9.57,9.57,0,0,1,1,.07c0,.2-.07.4-.08.61a3.61,3.61,0,0,0,0,.47c0,.19,0,.4,0,.6-.11-.36-.23-.72-.34-1.09C7,3.09,6.69,3,6.37,3l-.54-.06c.16.63.41,1.25.56,1.89H6l-.26,0c.46,1,.7,2.1,1.16,3.12-.13-.1-.28-.18-.41-.28a2.38,2.38,0,0,0-.14-.25c-.07-.14-.14-.29-.2-.44-.31-.79-.53-1.62-.85-2.41a4.78,4.78,0,0,0-.21-1.68A2.39,2.39,0,0,0,4.35,2.63Z" style="fill: #8c8d8f"/>
            <path d="M6.76,2.5c.74,0,1.49-.07,2.24-.07-.14.28-.29.57-.43.86l.23.07-.26.12L8.22,3.3l-.53-.12c0-.2.05-.41.08-.61A9.57,9.57,0,0,0,6.76,2.5Z" style="fill: #9ea0a3"/>
            <path d="M12.61,2.53a5.79,5.79,0,0,1,2.14,0c.55.1,1.12.08,1.69.15l.41.14c-.45.08-.9.13-1.36.17-.25.51-.51,1-.74,1.55L14,4.52c.13-.44.28-.88.41-1.33l-.35,0,.36-.1a7.68,7.68,0,0,1-1.69-.44Z" style="fill: #73746d"/>
            <path d="M5.83,2.93,6.37,3H6.08c.17.7.53,1.31.76,2L6,4.82h.35C6.24,4.18,6,3.56,5.83,2.93Z" style="fill: #dfcaad"/>
            <path d="M12.7,2.69a7.68,7.68,0,0,0,1.69.44l-.36.1-.66,0-.39,0C12.88,3.05,12.78,2.87,12.7,2.69Z" style="fill: #8d8e8e"/>
            <g>
              <path d="M4.89,4c.15.19.3.36.46.54.32.79.54,1.62.85,2.41a2.84,2.84,0,0,1-.38-.25c0-.49-.39-.75-.76-1C5,5.14,4.91,4.57,4.89,4Z" style="fill: #fff"/>
              <path d="M9.58,20.88c0-.12,0-.23.08-.35a1.13,1.13,0,0,0,.65.44,1.39,1.39,0,0,0,1.23-.61l.45.28,0-.1c0-.3.08-.6.12-.91,0-.1,0-.21,0-.33l.31-.14c-.19-1.06-.94-1.9-1-3l-.6.24c0,.95,0,1.91-.07,2.86l-.16-.11-.12-.05-.31.26c0-1.11.11-2.2,0-3.3l-.24,0-.09,0-.24-.27a2.54,2.54,0,0,1-.06.28c-.09.47-.22.92-.33,1.37-.13.66-.41,1.28-.48,2l-.62.31c0,.19,0,.37.08.56a1.91,1.91,0,0,1,.14.16,7.52,7.52,0,0,0,.41-.87,20.27,20.27,0,0,1,.37,3.44l.49.1a5.45,5.45,0,0,1-.12-.85,2.81,2.81,0,0,1,.45-.63,1,1,0,0,1-.08-.15.86.86,0,0,1-.45-1.2A5.28,5.28,0,0,0,9.58,20.88Z" style="fill: #fff"/>
            </g>
            <path d="M18.27,18.63a5,5,0,0,0,.74.94l.05,0a2.58,2.58,0,0,0-.37.12l-.16.06A9.32,9.32,0,0,1,18.27,18.63Z" style="fill: #eff0f0"/>
            <path d="M4.54,5.11c0-.63-.13-1.26-.1-1.89A6.85,6.85,0,0,1,4.89,4c0,.58.11,1.14.17,1.71A3.31,3.31,0,0,1,4.54,5.11Z" style="fill: #373739"/>
            <path d="M7.67,3.64a3.61,3.61,0,0,1,0-.47l.53.12A20.37,20.37,0,0,0,9,5.65a1.83,1.83,0,0,0,.49.79,5.9,5.9,0,0,1-.21.77C8.36,6.22,8.35,4.75,7.67,3.64Z" style="fill: #c2c1c4"/>
            <path d="M8.22,3.3l.32.18c.29.86.76,1.64,1,2.5,0,.16-.05.31-.08.46A1.83,1.83,0,0,1,9,5.65,20.37,20.37,0,0,1,8.22,3.3Z" style="fill: #eaf2fb"/>
            <path d="M13,3.23l.39,0A22.15,22.15,0,0,0,12,6.85c-.07-.29-.13-.56-.19-.84l.06-.13c.3-.84.73-1.63,1-2.46Z" style="fill: #aaacad"/>
            <path d="M8.54,3.48l.26-.12a15.11,15.11,0,0,0,.68,1.47H10a5.49,5.49,0,0,1,.29.7c0,.35-.06.7-.11,1l-.28-.19a3.09,3.09,0,0,0-.26-.26l0-.13C9.3,5.12,8.83,4.34,8.54,3.48Z" style="fill: #495480"/>
            <path d="M8.8,3.36a6.49,6.49,0,0,0,.71.15A2.68,2.68,0,0,0,10,4.82H9.48A15.11,15.11,0,0,1,8.8,3.36Z" style="fill: #777678"/>
            <path d="M17.17,3.17c-.05.64-.15,1.27-.21,1.92l-.35.41-.07,0c0-.23.07-.47.1-.7A2.36,2.36,0,0,1,17.17,3.17Z" style="fill: #5b5b5c"/>
            <path d="M9.51,3.51a6.19,6.19,0,0,0,2.43,0A7.74,7.74,0,0,1,10.7,5.87l-.46-.35a5.49,5.49,0,0,0-.29-.7A2.68,2.68,0,0,1,9.51,3.51Z" style="fill: #babdbf"/>
            <path d="M12.24,3.47c.23,0,.45,0,.66-.06-.3.83-.73,1.63-1,2.46-.24-.21-.46,0-.66.18a1.81,1.81,0,0,1,.38-1.13A3.15,3.15,0,0,0,12.24,3.47Z" style="fill: #c1d4e6"/>
            <path d="M7.67,3.64c.68,1.11.69,2.59,1.62,3.57l-.12.25a3,3,0,0,0-.69-.69,4,4,0,0,0-.06,1.5C7.74,7,8,5.55,7.64,4.24,7.65,4,7.66,3.83,7.67,3.64Z" style="fill: #ababab"/>
            <path d="M17.4,6.07l.83-.27c.37-.13.75-.27,1.11-.38.35.61.61,1.28.95,1.9a7.94,7.94,0,0,0,.67.9A10.51,10.51,0,0,0,18.8,3.84a14.36,14.36,0,0,0-1.32,2.09Z" style="fill: #a0a0a6"/>
            <path d="M.77,14.43c.87-.25,1.76-.42,2.65-.61-.06.28-.11.55-.17.83H2.62l-.29,0-.34,0a4.5,4.5,0,0,0-.74,0,.21.21,0,0,0-.25.21C.92,14.68.85,14.56.77,14.43Z" style="fill: #7a797b"/>
            <path d="M15.87,4.47l.21.29A9.92,9.92,0,0,0,15.25,7c-.07.12-.13.24-.18.36h0l-.48.24c.39-.89.63-1.84,1.06-2.73C15.7,4.75,15.78,4.61,15.87,4.47Z" style="fill: #8fa0bc"/>
            <path d="M4,5.41c.24.84,1.14,1,1.82,1.28a2.84,2.84,0,0,0,.38.25c.06.15.13.3.2.44C5,7.08,3.6,6.59,2.18,6.29c.08-.13.16-.27.23-.4A4.7,4.7,0,0,0,4,5.61Z" style="fill: #b7b7b8"/>
            <path d="M7,5.37c.19-.05.33.38.13.44A.33.33,0,0,1,7,5.37Z" style="fill: #bdc8d0"/>
            <g>
              <path d="M13.54,7.31a10.17,10.17,0,0,1,.88-2C14.32,6,14.24,6.91,13.54,7.31Z" style="fill: #79787b"/>
              <path d="M9.59,6.11a3.09,3.09,0,0,1,.26.26,8.53,8.53,0,0,0,.77,2l0,.1c.36-.67.67-1.37,1-2.07.06-.13.13-.24.19-.36.06.28.12.56.19.84s.12.42.18.64a4.1,4.1,0,0,1-.36,1.16A2.21,2.21,0,0,0,10.69,9c0,.36-.06.74-.07,1.1a3.23,3.23,0,0,0-.14-1.23A19.88,19.88,0,0,1,9.59,6.11Z" style="fill: #79787b"/>
            </g>
            <path d="M18.23,5.8c.37-.13.75-.27,1.11-.38.35.61.61,1.28.95,1.9-.11.07-.3.19-.41.24l-.06,0c-.08-.16-.17-.32-.25-.48l-.28-.61A1,1,0,0,0,18.23,5.8Z" style="fill: #4a494b"/>
            <path d="M9.49,6.44c0-.15.06-.3.08-.46l0,.13a19.88,19.88,0,0,0,.88,2.74l-1-.29c-.11-.23-.22-.43-.33-.65l-.33,1c-.13-.23-.26-.43-.37-.66a4,4,0,0,1,.06-1.5,3,3,0,0,1,.69.69l.12-.25A5.9,5.9,0,0,0,9.49,6.44Z" style="fill: #9f9fa1"/>
            <g>
              <path d="M17.4,6.07l.83-.27a1,1,0,0,1,1.07.71c-1,.19-2,.5-3,.76-.41.09-.86.36-1.26.1.06-.12.12-.25.18-.36A11.4,11.4,0,0,1,17.4,6.07Z" style="fill: #717172"/>
              <path d="M19.58,7.12c.08.16.17.31.25.48-.72.48-1.49.92-2.24,1.37s-1.52,1-2.31,1.42V9.94c0-.21.06-.43.09-.64a5.21,5.21,0,0,1-.75.51c0-.2,0-.4,0-.61a22.45,22.45,0,0,1,3.66-1.34C18.72,7.66,19.45,7.69,19.58,7.12Z" style="fill: #717172"/>
            </g>
            <path d="M2.18,6.29c1.42.31,2.8.79,4.21,1.09a2.38,2.38,0,0,1,.14.25,3,3,0,0,0,.5,1C7,8.72,7,8.88,7,9a8.8,8.8,0,0,1-2.61-.85c-.48-.19-1-.35-1.44-.52l-.27-.16c-.25-.21-.48-.44-.72-.68Z" style="fill: #f2f2f3"/>
            <path d="M1.24,12.17a1.26,1.26,0,0,0,.48-.55c1.29.13,2.61-.23,3.87.08L6,12c-.7.1-1.38.25-2.09.31a.91.91,0,0,0-.61.3c-.4,0-.78.06-1.17.09l-1.31,0A3.53,3.53,0,0,1,1.24,12.17Z" style="fill: #89898a"/>
            <path d="M10.62,8.34c-.09-.75.16-1.8,1-2-.31.7-.61,1.4-1,2.07Z" style="fill: #515d76"/>
            <path d="M16.32,7.27c1-.26,2-.57,3-.76l.28.61c-.13.57-.86.54-1.31.74a22.45,22.45,0,0,0-3.66,1.34c.12-.61.28-1.22.44-1.81h0C15.46,7.63,15.91,7.35,16.32,7.27Z" style="fill: #798091"/>
            <path d="M1.48,7.32l.37-.2c.28.1.55.19.81.31l.27.16c.24.18.46.37.68.57a5.45,5.45,0,0,1-2-.78Z" style="fill: #b9bfcb"/>
            <path d="M1.17,8.9a15.3,15.3,0,0,1,3.13,1L4.08,9a9.41,9.41,0,0,1-1-.72,5.62,5.62,0,0,1,1.17.19c0-.11.1-.23.14-.34-.48-.19-1-.35-1.44-.52.24.18.46.37.68.57a5.45,5.45,0,0,1-2-.78c-.23.34-.47.66-.68,1,0,.1,0,.2-.08.31A.8.8,0,0,0,1.17,8.9Z" style="fill: #8f9190"/>
            <path d="M14.57,7.61l.48-.24c-.16.6-.33,1.2-.44,1.81,0,.2,0,.4,0,.61a5.21,5.21,0,0,0,.75-.51c0,.21-.07.43-.09.64l-.06.55L15,10.41a2.11,2.11,0,0,1-.85-.59,2.33,2.33,0,0,1,.11-1A9.07,9.07,0,0,0,14.57,7.61Z" style="fill: #d8d9da"/>
            <path d="M6.54,7.63c.13.1.28.17.41.28s.12.19.19.29-.07.3-.1.45A3,3,0,0,1,6.54,7.63Z" style="fill: #d6d8da"/>
            <path d="M12.2,7.5a3.06,3.06,0,0,1,.18,1.86c-.44.56-.75,1.23-1.17,1.8l-.61.35c0-.13,0-.27,0-.4.43-.8.82-1.64,1.23-2.45A4.1,4.1,0,0,0,12.2,7.5Z" style="fill: #c4c8ce"/>
            <path d="M.7,10.25a3.35,3.35,0,0,0,1.48,0l.41.34-.36,0a3.19,3.19,0,0,0-1.35-.08H.78C.76,10.44.72,10.31.7,10.25Z" style="fill: #4f5052"/>
            <path d="M19.83,7.59l.06,0c.21.43.46.84.7,1.25A26.85,26.85,0,0,1,17.32,10c.1-.35.19-.71.27-1.07C18.33,8.51,19.11,8.07,19.83,7.59Z" style="fill: #c1ad96"/>
            <path d="M3.06,8.26a5.62,5.62,0,0,1,1.17.19,16.6,16.6,0,0,1,1.88.94c0,.27,0,.53-.06.79a20,20,0,0,1-2-1.2A9.41,9.41,0,0,1,3.06,8.26Z" style="fill: #808081"/>
            <path d="M7.11,8.84a3,3,0,0,1,.35-.26c.5.58,1,1.17,1.51,1.73a1.06,1.06,0,0,1,.08.13c-.06.19-.12.39-.17.59l.65.46c-.3,0-.61,0-.91,0a4,4,0,0,1,.07-.54,1.16,1.16,0,0,0-.14-.09l-.21-.13c-.28-.18-.54-.37-.82-.53C7.37,9.73,7.22,9.28,7.11,8.84Z" style="fill: #6d7385"/>
            <path d="M9.44,8.56l1,.29a3.23,3.23,0,0,1,.14,1.23c0,.34,0,.69,0,1C10.27,10.24,9.81,9.4,9.44,8.56Z" style="fill: #cdd0d3"/>
            <path d="M1.17,8.9a15.3,15.3,0,0,1,3.13,1c.39.13.79.29,1.18.44a8,8,0,0,1-1.06.26L5.75,11a2.08,2.08,0,0,1,.1.24l.54.08a1.27,1.27,0,0,1-.16.24c-.56-.08-1.12-.19-1.69-.26.28,0,.56-.1.83-.16a4.93,4.93,0,0,0-1.21-.17l-.63-.23.59-.12L3,10.43c-.12-.12-.25-.22-.38-.33C2.13,9.69,1.62,9.34,1.17,8.9Z" style="fill: #68666f"/>
            <path d="M10.69,9a2.21,2.21,0,0,1,1.16-.33c-.41.81-.8,1.65-1.23,2.45,0-.33,0-.69,0-1S10.66,9.34,10.69,9Z" style="fill: #474946"/>
            <path d="M12.45,10.16c.46-.51.89-1,1.38-1.51l.43.14a2.33,2.33,0,0,0-.11,1,2.11,2.11,0,0,0,.85.59l-.89-.12c-.61-.1-1.1.41-1.55.75-.12-.2-.24-.39-.35-.6Z" style="fill: #b7b8b8"/>
            <path d="M4.08,9a20,20,0,0,0,2,1.2l-.25.56H5.74c0-.07,0-.23,0-.3l-.24-.08c-.39-.15-.78-.31-1.18-.44Z" style="fill: #aeb1ae"/>
            <path d="M15.28,10.38c.79-.45,1.54-1,2.31-1.42-.07.36-.16.72-.27,1.07a11.76,11.76,0,0,0-1.4.54l-.35.08-.36-.18.06-.55Z" style="fill: #dcc3a5"/>
            <path d="M6.11,9.39,7,9.91c-.27.12-.53.25-.79.39a8.85,8.85,0,0,0,1.27-.14c.28.16.54.35.82.53a14.91,14.91,0,0,1-2.53.05l.25-.56C6.09,9.91,6.09,9.66,6.11,9.39Z" style="fill: #feffff"/>
            <path d="M8.86,9.32a7.49,7.49,0,0,1,.93,1.5l-.17.26a7.67,7.67,0,0,1-.57-.64A1.06,1.06,0,0,0,9,10.31,7.08,7.08,0,0,0,8.86,9.32Z" style="fill: #cbcdcc"/>
            <path d="M11.22,11.16c.42-.58.72-1.24,1.17-1.8,0,.28,0,.55.06.81l-.25.27a8.52,8.52,0,0,1-1.3,1.24Z" style="fill: #dff0f2"/>
            <path d="M2.18,10.26l.44-.16c.13.1.26.21.38.33l.1.14a1.94,1.94,0,0,1-.51,0Z" style="fill: #5168af"/>
            <path d="M5.47,10.35l.24.08c0,.08,0,.23,0,.3s0,.17,0,.23l-1.34-.35A8,8,0,0,0,5.47,10.35Z" style="fill: #9a9694"/>
            <path d="M.88,10.48a3.19,3.19,0,0,1,1.35.08c.17.15.32.31.49.45-.67.16-1.28.49-1.95.67C.79,11.29.83,10.89.88,10.48Z" style="fill: #c3cae8"/>
            <path d="M9.05,10.44a7.67,7.67,0,0,0,.57.64c.3.31.59.63.88.95a3.55,3.55,0,0,0,.1-.43c0,.15,0,.3,0,.46l-.05.07L9.86,12a2.72,2.72,0,0,0-1.25.23l-.4-.13.88-.23-1-.11-.36-.15.56-.16.31-.05c.3,0,.61,0,.91,0L8.88,11C8.93,10.83,9,10.62,9.05,10.44Z" style="fill: #afc8c2"/>
            <path d="M10.9,11.68a8.52,8.52,0,0,0,1.3-1.24c.11.21.23.4.35.6a1.42,1.42,0,0,0,.82.66c-.22,0-.44.11-.67.17l-.47.1a4,4,0,0,0-1.37.18,1.56,1.56,0,0,0,1.76.17l-.2.37c-.18,0-.34.1-.51.15l-1-.05c-.11-.18-.23-.36-.35-.54,0,.07-.09.2-.12.28A6.24,6.24,0,0,0,9.86,12l.7.08.05-.07C10.71,11.92,10.8,11.81,10.9,11.68Z" style="fill: #a1a0ab"/>
            <path d="M18.54,10.37a3.87,3.87,0,0,1,1.1.18c-.3.24-.61.46-.92.69.46.28,1,.48,1.28,1a1.77,1.77,0,0,1-.72.06c-1.13-.13-2.26-.22-3.39-.32a2,2,0,0,0-1.13.31,10.64,10.64,0,0,0-2.06-.42c.23-.06.44-.13.67-.17l.29,0c.88.17,1.95.5,2.72-.15a1.45,1.45,0,0,1,.76-.29,4.1,4.1,0,0,0,1.06.08l-.11-.12L18,11.06a1.61,1.61,0,0,1-.12-.17A2.42,2.42,0,0,1,18.54,10.37Z" style="fill: #8d8b93"/>
            <path d="M5.74,10.74h.07a14.91,14.91,0,0,0,2.53-.05l.21.13a10.47,10.47,0,0,1-2.8.15C5.75,10.91,5.74,10.79,5.74,10.74Z" style="fill: #90bbe4"/>
            <path d="M1.72,11.62a12.34,12.34,0,0,1,2.82-.36c.28,0,.56-.1.83-.16a4.93,4.93,0,0,0-1.21-.17,9.39,9.39,0,0,1-.94.08l-.51,0c-.67.16-1.28.49-1.95.67a1.43,1.43,0,0,1-.53.08c0,.24-.07.45-.1.69l1.09-.28A1.26,1.26,0,0,0,1.72,11.62Z" style="fill: #727273"/>
            <path d="M8.55,10.82a1.16,1.16,0,0,1,.14.09,4,4,0,0,0-.07.54l-.31.05c-.52-.05-1-.15-1.54-.18H6.68l-.29,0-.54-.08a2.08,2.08,0,0,0-.1-.24A10.47,10.47,0,0,0,8.55,10.82Z" style="fill: #7897c0"/>
            <path d="M15.57,10.66l.35-.08a9.16,9.16,0,0,1,1.05.22,12.85,12.85,0,0,1-1.4.22Z" style="fill: #797a79"/>
            <path d="M1.72,11.62a12.34,12.34,0,0,1,2.82-.36c.57.07,1.13.18,1.69.26a1.55,1.55,0,0,1-.64.17C4.33,11.39,3,11.75,1.72,11.62Z" style="fill: #c3d5d3"/>
            <path d="M6.39,11.29l.29,0c-.6.2.43.5.09,0,.52,0,1,.13,1.54.18l-.56.16.36.15c-.86.23-1.72.48-2.56.76-.75-.06-1.48,0-2.23,0a.91.91,0,0,1,.61-.3c.7-.06,1.38-.21,2.09-.31l-.43-.29a1.55,1.55,0,0,0,.64-.17A1.27,1.27,0,0,0,6.39,11.29Z" style="fill: #999a99"/>
            <path d="M12.55,11c1.1.17,2.23.08,3.33.23a8.14,8.14,0,0,1-2.22.4l-.29,0A1.42,1.42,0,0,1,12.55,11Z" style="fill: #bbcbc9"/>
            <path d="M16,11.25a5.71,5.71,0,0,1,2-.19l.09.12a6.54,6.54,0,0,0-1,0,1.45,1.45,0,0,0-.76.29C16.23,11.43,16.08,11.34,16,11.25Z" style="fill: #d5d9d7"/>
            <path d="M6.77,11.33c.34.49-.69.19-.09,0Z" style="fill: #dadcdc"/>
            <path d="M15.88,11.26H16c.13.08.28.18.43.26-.77.65-1.84.32-2.72.15A8.14,8.14,0,0,0,15.88,11.26Z" style="fill: #686968"/>
            <path d="M17.14,11.22a6.54,6.54,0,0,1,1,0l.11.12A4.1,4.1,0,0,1,17.14,11.22Z" style="fill: #666767"/>
            <path d="M8.12,11.81l1,.11-.88.23c-1.19.29-2.38.55-3.58.79l-.11,0,.34-.19.7-.2C6.39,12.29,7.25,12,8.12,11.81Z" style="fill: #474848"/>
            <path d="M8.61,12.28A2.72,2.72,0,0,1,9.86,12a6.24,6.24,0,0,1,.61.49l0,.1h-.1c-.8,0-1.23.74-1.76,1.19a24.69,24.69,0,0,1-2.37,2c.21-.56.42-1.11.61-1.69l-.42.21c-.22.09-.46.17-.7.25.13-.49.5-1,.23-1.51A17.5,17.5,0,0,0,8.61,12.28Z" style="fill: #98999b"/>
            <path d="M12.23,12l.47-.1a10.64,10.64,0,0,1,2.06.42l.18,0c.2.08.4.18.59.25l-.4.12C14.17,12.44,13.18,12.26,12.23,12Z" style="fill: #6d6d6c"/>
            <path d="M4.64,12.94c1.2-.25,2.39-.51,3.58-.79l.4.13a17.5,17.5,0,0,1-2.67.78c.28.5-.09,1-.23,1.51a.85.85,0,0,1-.06.12c-.36.23-.75.41-1.1.64-.5-.19-1-.58-1.56-.31l-.37-.36h.62c1.05.19,1.58-.85,2.29-1.42a2.26,2.26,0,0,0-.88,0,2.75,2.75,0,0,1-1.16,0Z" style="fill: #f6f6f9"/>
            <path d="M14.77,12.29A2,2,0,0,1,15.9,12c1.13.1,2.26.19,3.39.32a1.77,1.77,0,0,0,.72-.06l.12,0c0,.17.08.33.13.5-1.78-.11-3.53-.46-5.32-.4Z" style="fill: #d6d8db"/>
            <path d="M.76,12.77l.09-.11,1.31,0c.89.11,1.79,0,2.7.09L4.52,13l.11,0-1.14.35a7.91,7.91,0,0,0-3,.49,5.29,5.29,0,0,0,.29-.54c-.14,0-.29-.1-.44-.15a2.42,2.42,0,0,1,1.05-.25Zm.2.32a8.33,8.33,0,0,0,3.39-.24C3.22,12.75,2.11,13.07,1,13.08Z" style="fill: #bcc3c1"/>
            <g>
              <path d="M2.16,12.68c.39,0,.77-.07,1.17-.09.75,0,1.48-.09,2.23,0l-.7.2C4,12.71,3.05,12.79,2.16,12.68Z" style="fill: #fbfdff"/>
              <path d="M21,15.22h-.19A3.46,3.46,0,0,0,20.59,14l-.4.58-.28,0a11.13,11.13,0,0,1-2.3-.5,4.59,4.59,0,0,1,.06.46,6,6,0,0,1,1.39.29,7,7,0,0,1-1.39,0l.18.19c.19.2.38.39.57.6.58-.2,1-.63,1.63-.82-.15.3-.34.58-.52.87s-.27.43-.4.64-.21.34-.33.52l.38.16c.36,0,.72-.06,1.07-.1,0-.14-.08-.29-.12-.43l.46.19C20.73,16.21,20.86,15.71,21,15.22Z" style="fill: #fbfdff"/>
            </g>
            <path d="M12.62,12.32c.21.06.4.12.61.2,0,0,0,.16,0,.22-.27,0-.53,0-.79,0Z" style="fill: #78797d"/>
            <path d="M8.59,13.83c.54-.45,1-1.22,1.76-1.19-.46.83-1,1.64-1.44,2.46l-.6.23c0-.08,0-.21,0-.28a4.91,4.91,0,0,0,.35-.76c-1,.65-1.61,1.81-2.74,2.28.05-.16.09-.32.15-.47s.12-.2.19-.31A24.69,24.69,0,0,0,8.59,13.83Z" style="fill: #acacad"/>
            <path d="M13.23,12.52c.68.29,1.42.4,2.13.62a1.53,1.53,0,0,1,.08.19c-.2.46,0,1,0,1.43a.55.55,0,0,1,0,.15,2.16,2.16,0,0,1,.05.27,3,3,0,0,0-1.19-.88c-.51-.26-1-.57-1.49-.82l-.63-.43c-.1-.08-.21-.14-.33-.21.16-.05.33-.11.51-.15s.53,0,.79,0C13.22,12.68,13.23,12.57,13.23,12.52Z" style="fill: #a4a59e"/>
            <path d="M1,13.08c1.15,0,2.26-.33,3.39-.24A8.33,8.33,0,0,1,1,13.08Z" style="fill: #e7edf2"/>
            <path d="M8.91,15.1c.49-.82,1-1.63,1.44-2.46h.1c-.06.24-.09.49-.15.72-.2.85-.43,1.68-.66,2.52a2.54,2.54,0,0,1-.06.28,2.75,2.75,0,0,1-.42.39,5.28,5.28,0,0,0,.15-.62c-.4.33-.54.86-.88,1.23a1.86,1.86,0,0,1-.79,0C8,16.57,8.37,16,8.7,15.42,8.78,15.31,8.84,15.2,8.91,15.1Z" style="fill: #7f8080"/>
            <path d="M15.54,12.58c1.27,0,2.49.2,3.75.28a3,3,0,0,1,1.44.3c-1.45,0-2.89-.32-4.34-.39l.32.26c-.52-.09-1-.18-1.56-.32Z" style="fill: #cad1d7"/>
            <path d="M11,12.79l1,.05c.11.07.23.13.33.21-.27.08-.54.15-.82.21a4,4,0,0,0,.2.38c.87,1.66,2.43,2.77,3.54,4.23l-.45.12a2.91,2.91,0,0,1,1,1.08l-.33-.16a5.56,5.56,0,0,1-1.64-1.08c-.35-.67-.81-1.29-1.15-2a4,4,0,0,0-.89-1.42A14.47,14.47,0,0,1,11,12.79Z" style="fill: #c2c1c1"/>
            <path d="M.1,13.29l.3-.19c.15.05.3.11.44.15a5.29,5.29,0,0,1-.29.54l-.13,0Z" style="fill: #707071"/>
            <path d="M10.66,12.82c.09.19.16.39.24.59A2.13,2.13,0,0,0,10.56,15l-.56.4c0,.15,0,.31,0,.46s0,.16,0,.25l-.09,0-.24-.27c.23-.84.46-1.67.66-2.52l.29.08C10.61,13.23,10.64,13,10.66,12.82Z" style="fill: #9da5b7"/>
            <path d="M.54,13.78a7.91,7.91,0,0,1,3-.49,2.75,2.75,0,0,0,1.16,0,1.66,1.66,0,0,1,.15.26l-1.38.28c-.89.19-1.78.36-2.65.61a1.2,1.2,0,0,0-.12-.2C.57,14.1.48,14,.41,13.81Z" style="fill: #c3ddd4"/>
            <path d="M4.65,13.29a2.26,2.26,0,0,1,.88,0c-.71.56-1.24,1.61-2.29,1.42.06-.29.11-.55.17-.83l1.38-.28A1.66,1.66,0,0,0,4.65,13.29Z" style="fill: #b9b9ba"/>
            <path d="M11.42,13.26c.28-.06.55-.13.82-.21,0,.18,0,.36-.07.54l-.54.05A4,4,0,0,1,11.42,13.26Z" style="fill: #dededd"/>
            <path d="M15.36,13.15a7.54,7.54,0,0,0,.85.25c0,.06,0,.17.05.23,1.23.32,2.46.55,3.66,1a11.13,11.13,0,0,1-2.3-.5,4.59,4.59,0,0,1,.06.46,6,6,0,0,1,1.39.29,7,7,0,0,1-1.39,0c-.61,0-1.22,0-1.83-.06a8.51,8.51,0,0,0,1.14,0,4.39,4.39,0,0,0-1.55-1.42A1.53,1.53,0,0,0,15.36,13.15Z" style="fill: #bcbcbb"/>
            <path d="M10.9,13.41a10.62,10.62,0,0,0,.55,1.23c0,.14-.07.27-.11.4-.12-.28-.2-.56-.31-.84.07.37.13.75.2,1.13L10.56,15A2.13,2.13,0,0,1,10.9,13.41Z" style="fill: #caced3"/>
            <path d="M12.87,13.49c.51.26,1,.57,1.49.82l.2.51A3.41,3.41,0,0,1,12.87,13.49Z" style="fill: #d1d0d1"/>
            <path d="M15.49,14.77c0-.48-.25-1,0-1.43A4.39,4.39,0,0,1,17,14.76a8.51,8.51,0,0,1-1.14,0Z" style="fill: #8a8a8a"/>
            <path d="M16.21,13.4c1.53.24,3.08-.12,4.61.08l-.22.56-.4.58-.28,0c-1.2-.4-2.43-.63-3.66-1C16.24,13.57,16.23,13.45,16.21,13.4Z" style="fill: #878695"/>
            <path d="M4.13,16.13c.19-.39.52-.61.94-.36-.4.62-.77,1.25-1.13,1.89a3.86,3.86,0,0,1-.72,0C3.28,17.07,3.82,16.65,4.13,16.13Z" style="fill: #fff"/>
            <path d="M5.72,14.57c.24-.07.48-.16.7-.25A3.08,3.08,0,0,1,5.19,15.6c.16-.31.32-.6.47-.91A.85.85,0,0,0,5.72,14.57Z" style="fill: #616686"/>
            <path d="M5.88,16.57C7,16.11,7.63,14.94,8.63,14.3a4.91,4.91,0,0,1-.35.76,11,11,0,0,0-1.88,2c-.09.12,0,.26,0,.38-.1.12-.2.21-.31.32l-.06.06c-.34.25-.52.67-.9.86,0-.19.1-.37.13-.55A4.58,4.58,0,0,1,5.88,16.57Z" style="fill: #d9dbdb"/>
            <path d="M11.23,15.34c-.07-.38-.13-.76-.2-1.13.1.28.18.56.31.84,0-.13.07-.26.11-.4.14.31.27.61.43.92l-.21,0-.32-.47c.1,1.67,1.32,3,1.41,4.73-.1-.2-.18-.42-.28-.63-.19-1.06-.94-1.9-1-3l-.6.24c0,.95,0,1.91-.07,2.86l-.16-.11a32.93,32.93,0,0,1,0-3.62c0-.18,0-.37,0-.55Z" style="fill: #9a9b9e"/>
            <path d="M1,14.81a.21.21,0,0,1,.25-.21.71.71,0,0,1-.1.43Z" style="fill: #4e5356"/>
            <path d="M1.25,14.6a4.5,4.5,0,0,1,.74,0c-.25,0-.48.05-.73.06.3.37.72.6,1,1,0,.23-.2.38-.33.55L1.78,16a9.84,9.84,0,0,1-.63-1A.71.71,0,0,0,1.25,14.6Z" style="fill: #868788"/>
            <path d="M1.26,14.67c.26,0,.49-.05.73-.06a1.47,1.47,0,0,0,.56.92l.32-.15.06.35a2.69,2.69,0,0,0-.77,1,3.2,3.2,0,0,1-1.51.16l.17-.4-.07-.21a.77.77,0,0,0,1-.19l.12.16c.12-.16.32-.32.33-.55C2,15.27,1.56,15,1.26,14.67Z" style="fill: #e3e4dd"/>
            <path d="M2,14.61l.34,0,.51.58,0,.15-.32.15A1.47,1.47,0,0,1,2,14.61Z" style="fill: #b8bfd4"/>
            <path d="M2.34,14.64l.29,0L3,15c.54-.27,1.07.12,1.56.31l-.24.15-.41-.14a1.34,1.34,0,0,1-.41.69l-.17.07a2.35,2.35,0,0,0-.46-.86Z" style="fill: #999a9d"/>
            <path d="M11.76,14.44a4,4,0,0,1,.89,1.42c.34.68.8,1.3,1.15,2a5.59,5.59,0,0,0,1.09,2.76,6.38,6.38,0,0,0,.79,1l-.29.19-.51-.54a17.58,17.58,0,0,1-2.2-3.85h.61l-.06-.1A16.35,16.35,0,0,1,11.76,14.44Z" style="fill: #838587"/>
            <path d="M4.55,15.33c.36-.23.74-.41,1.1-.64-.15.31-.31.61-.47.91l-.11.17c-.42-.26-.75,0-.94.36L3.48,16a1.34,1.34,0,0,0,.41-.69l.41.14Z" style="fill: #bec2e3"/>
            <path d="M15.5,14.92a.55.55,0,0,0,0-.15l.36,0c.61.05,1.22,0,1.83.06l.18.19-.9.35-.42.11A9.5,9.5,0,0,0,15.5,14.92Z" style="fill: #dcf0fb"/>
            <path d="M6.39,17a11,11,0,0,1,1.88-2c0,.07,0,.2,0,.28l.6-.23c-.08.11-.14.21-.21.33a10.59,10.59,0,0,0-2.28,2C6.36,17.27,6.3,17.14,6.39,17Z" style="fill: #bababa"/>
            <path d="M10,15.39l.56-.4c0,.18,0,.37,0,.55a2,2,0,0,1-.61.31C10,15.71,10,15.55,10,15.39Z" style="fill: #3c4864"/>
            <path d="M15.5,14.92a9.5,9.5,0,0,1,1,.58l.42-.11c.27,0,.55,0,.84,0-.11.36-.46.83,0,1l.93.51c-.14.23-.28.44-.4.68a2.19,2.19,0,0,0-.14.21l-1.13.06c.09.38.43.5.79.52-.13.19-.25.38-.37.57l-.44-.33-.23-.18-.27-.21A1.5,1.5,0,0,0,15.8,18c-.33-1-.76-1.9-1.09-2.86.63.32.86,1.08,1.52,1.37a3.34,3.34,0,0,0-.67-1.34A2.16,2.16,0,0,0,15.5,14.92Z" style="fill: #646566"/>
            <path d="M2.85,15.23a2.35,2.35,0,0,1,.46.86c-.33.14-.63.35-.94.51l-.2.08a2.69,2.69,0,0,1,.77-1l-.06-.35Z" style="fill: #484951"/>
            <g>
              <path d="M11.34,15.06l.32.47.21,0c.3.47.47,1,.75,1.49.11.22.41.13.61.19l.06.1h-.61a17.58,17.58,0,0,0,2.2,3.85,4.85,4.85,0,0,1-2-2.21c.15.37.33.74.49,1.1L12.93,20c0,.28-.06.55-.08.81l-.36-.41a7.74,7.74,0,0,1-.33-.78c0-.1,0-.21,0-.33l.31-.14c.09.21.17.43.28.63C12.66,18.11,11.44,16.73,11.34,15.06Z" style="fill: #f0f3ed"/>
              <path d="M12.28,19.39c-.14.1,0,.36.17.24S12.42,19.27,12.28,19.39Z" style="fill: #f0f3ed"/>
            </g>
            <path d="M18.43,15.64c.58-.2,1-.63,1.63-.82-.15.3-.34.58-.52.87l-.92.14Z" style="fill: #888fc7"/>
            <path d="M17.86,15c.19.2.38.39.57.6l.18.19.16.19-.37-.13a1.09,1.09,0,0,1-.21-.06c-.1.16-.18.33-.27.5a.28.28,0,0,1-.07.05c-.51-.17-.16-.65,0-1-.29,0-.57,0-.84,0Z" style="fill: #797879"/>
            <path d="M8.7,15.42a10.59,10.59,0,0,0-2.28,2c-.1.12-.2.21-.31.32a3,3,0,0,0,1.25-.23c-.19.28-.38.56-.59.82s-.44.57-.69.84A7.27,7.27,0,0,1,4.56,21a1.91,1.91,0,0,1,.24.16c.45-.34.88-.7,1.36-1-.42.39-.88.74-1.31,1.1l.15.45c.4.19.8.36,1.21.52l-.64-.49a8.5,8.5,0,0,1,.64-.84l.2-.32c.12-1.32,1.11-2.3,1.84-3.32-.23,0-.44,0-.67,0,0,0,.05-.07.06-.1C8,16.57,8.37,16,8.7,15.42Z" style="fill: #fcfdfe"/>
            <path d="M10,15.86a2,2,0,0,0,.61-.31,32.93,32.93,0,0,0,0,3.62l-.12-.05-.31.26c0-1.11.11-2.2,0-3.3l-.24,0C10,16,10,15.94,10,15.86Z" style="fill: #bec0c7"/>
            <path d="M3.31,16.09,3.48,16l.65.11c-.32.52-.86.94-.91,1.57l-.52-.05a4.33,4.33,0,0,0,.6.92,5.4,5.4,0,0,0,.41.44c0,.08,0,.24,0,.32s0,.3,0,.45.18.27.28.4l-.42,0c-.28-.17-.54-.37-.81-.56,0-.29,0-.58,0-.86-.07.25-.13.52-.19.77l-.28-.06A5.85,5.85,0,0,1,2.65,18c-.24.44-.45.89-.69,1.33l-.13-.31c0-.59.57-1,.79-1.55l-.14-.22-.23-.41c0-.1.08-.2.11-.29C2.68,16.44,3,16.23,3.31,16.09Z" style="fill: #e8e8eb"/>
            <path d="M18.61,15.83l.92-.14c-.13.21-.27.43-.4.64L18.77,16Z" style="fill: #9097b4"/>
            <path d="M4,17.83A11.25,11.25,0,0,0,6,16.1c-.06.15-.1.31-.15.47a4.58,4.58,0,0,0-.6,1.51,1.44,1.44,0,0,0,0-.21,1,1,0,0,0-.92.34C4.25,18.08,4.14,17.95,4,17.83Z" style="fill: #7c7d7b"/>
            <path d="M8.43,17.15c.34-.37.48-.9.88-1.23a5.28,5.28,0,0,1-.15.62A32,32,0,0,0,8,19.6a11.47,11.47,0,0,0,1-2.1l.3,0c-.13.66-.41,1.28-.48,2l-.62.31c-.35.2-.7.42-1,.65a8.68,8.68,0,0,1-.8.44l-.09.05.2-.32c.83-1,1.32-2.25,2.2-3.25l-.36-.08c-.23,0-.44,0-.67,0,0,0,.05-.07.06-.1A1.86,1.86,0,0,0,8.43,17.15Z" style="fill: #cfcec9"/>
            <path d="M17.91,16.33c.09-.17.17-.34.27-.5a1.09,1.09,0,0,0,.21.06A1.91,1.91,0,0,1,17.91,16.33Z" style="fill: #cbc6ba"/>
            <path d="M9.15,16.54a2.75,2.75,0,0,0,.42-.39c-.09.47-.22.92-.33,1.37l-.3,0a11.47,11.47,0,0,1-1,2.1A32,32,0,0,1,9.15,16.54Z" style="fill: #a5a5ad"/>
            <path d="M18.4,15.9l.37.13.36.31c-.11.18-.21.34-.33.52,0,0,0,0,0,0l-.93-.51a.28.28,0,0,0,.07-.05A1.91,1.91,0,0,0,18.4,15.9Z" style="fill: #9a9487"/>
            <path d="M2.48,17.3l.14.22c-.22.54-.75,1-.79,1.55L1.52,19C1.46,18.27,2.23,17.91,2.48,17.3Z" style="fill: #989899"/>
            <path d="M8.25,17.28l.36.08c-.88,1-1.36,2.24-2.2,3.25C6.54,19.28,7.53,18.31,8.25,17.28Z" style="fill: #d4edfc"/>
            <path d="M2.7,17.65l.52.05a3.86,3.86,0,0,0,.72,0l0,.07L3.77,18c-.12.21-.27.42-.4.64l-.06,0A4.33,4.33,0,0,1,2.7,17.65Z" style="fill: #86879f"/>
            <path d="M6.11,17.71a3,3,0,0,0,1.25-.23c-.19.28-.38.56-.59.82a7.83,7.83,0,0,0-1.25.44c.19-.31.54-.57.53-1Z" style="fill: #ccd0e4"/>
            <path d="M3.77,18l.14-.25.12.1c.11.12.22.26.32.38l-.24.24C4,18.28,3.88,18.12,3.77,18Z" style="fill: #d3b678"/>
            <path d="M4.35,18.21a1,1,0,0,1,.92-.34,1.44,1.44,0,0,1,0,.21c0,.18-.09.36-.13.55a4.43,4.43,0,0,1-.77.64,1.39,1.39,0,0,1-.27-.83Z" style="fill: #42444a"/>
            <path d="M5.15,18.63c.38-.19.56-.61.9-.86,0,.4-.33.67-.53,1a7.83,7.83,0,0,1,1.25-.44c-.23.29-.44.57-.69.84a4.05,4.05,0,0,1-2.16,1c-.1-.13-.18-.27-.28-.4s0-.3,0-.45l.2.25.49-.31A4.43,4.43,0,0,0,5.15,18.63Z" style="fill: #79868d"/>
            <path d="M3.77,18c.12.15.24.31.34.47a.92.92,0,0,1-.74.17C3.5,18.39,3.64,18.18,3.77,18Z" style="fill: #fffffe"/>
            <path d="M14.89,20.59a5.59,5.59,0,0,1-1.09-2.76,5.56,5.56,0,0,0,1.64,1.08h-.71a5.39,5.39,0,0,0,.51.83,3.47,3.47,0,0,0-.19.61l0,.13Z" style="fill: #6e7176"/>
            <path d="M17.09,17.85l1.13-.06,0,0L18,18l0,.25-.06.11C17.52,18.34,17.18,18.23,17.09,17.85Z" style="fill: #808284"/>
            <path d="M15.27,17.92l.59.3c0-.05,0-.16-.06-.2a1.5,1.5,0,0,1,.78.19l-.53.24c-.05.17-.1.33-.14.5A5.59,5.59,0,0,1,15.27,17.92Z" style="fill: #a6a6a8"/>
            <path d="M18,18l.2-.18a6.62,6.62,0,0,1,.77,1.5c0,.06,0,.18.05.24a5,5,0,0,1-.74-.94,9.32,9.32,0,0,0,.26,1.16,1,1,0,0,0-.21.1,7.41,7.41,0,0,0-.38-1.64Z" style="fill: #cfcfcf"/>
            <path d="M3.37,18.61a.92.92,0,0,0,.74-.17,1.39,1.39,0,0,0,.27.83l-.49.31-.2-.25c0-.08,0-.24,0-.32a5.4,5.4,0,0,1-.41-.44Z" style="fill: #7a809e"/>
            <path d="M17.87,18.36l.06-.11a7.41,7.41,0,0,1,.38,1.64,5.2,5.2,0,0,0-.7.46h-.23a4.33,4.33,0,0,1,.11-1.43C17.62,18.74,17.75,18.55,17.87,18.36Z" style="fill: #feffff"/>
            <path d="M16.31,19.15l.53-.73.23.18c-.13.28-.25.56-.37.85Z" style="fill: #a29165"/>
            <path d="M17.07,18.6l.44.33a4.33,4.33,0,0,0-.11,1.43h.23c-.54.43-1.33.56-1.7,1.2,0-.51-.6-.7-.86-1.06l0-.13a12.88,12.88,0,0,1,1,.77,1.23,1.23,0,0,0,.09-.15l.16-.22a1.16,1.16,0,0,0,.52-.33l-.2-.17.2-.4s.09-.15.11-.19a2.36,2.36,0,0,0-.28-.21C16.82,19.17,16.94,18.89,17.07,18.6Z" style="fill: #848381"/>
            <path d="M14.73,18.92h.71l.33.16a4.81,4.81,0,0,0,1.1.78l-.2.4c-.1.17-.2.33-.32.5l-.16.22c-.3-.42-.62-.83-.95-1.24A5.39,5.39,0,0,1,14.73,18.92Z" style="fill: #555c68"/>
            <path d="M3.93,20.18a4.05,4.05,0,0,0,2.16-1A7.27,7.27,0,0,1,4.56,21,4.82,4.82,0,0,0,4,20.65a4.76,4.76,0,0,1-.44-.21c0-.07,0-.13-.05-.21Z" style="fill: #9eacbb"/>
            <path d="M12.28,19.39c.14-.12.3.14.17.24S12.14,19.49,12.28,19.39Z" style="fill: #b2b9a4"/>
            <path d="M8.36,20.5a1.91,1.91,0,0,0-.14-.16s0,.1,0,.14a2.79,2.79,0,0,1,.11.4c0,.12,0,.26.05.38.09.59.25,1.17.39,1.74a2.4,2.4,0,0,0,.32.06,20.27,20.27,0,0,0-.37-3.44A7.52,7.52,0,0,1,8.36,20.5Z" style="fill: #8a9ace"/>
            <path d="M7.1,20.43c.35-.23.7-.45,1-.65,0,.19,0,.37.08.56,0,0,0,.1,0,.14a2.79,2.79,0,0,1,.11.4L8,20.78C7.71,20.68,7.41,20.55,7.1,20.43Z" style="fill: #5d6aaf"/>
            <path d="M12.68,21.78a2.41,2.41,0,0,0,.16.2c-.14-.52-.26-1-.36-1.57a7.74,7.74,0,0,1-.33-.78c0,.31-.07.61-.12.91-.13.91-.23,1.83-.35,2.75l.11,0h.45A12.13,12.13,0,0,1,12.68,21.78Z" style="fill: #a1a5aa"/>
            <path d="M15,20.36a3.47,3.47,0,0,1,.19-.61c.32.4.65.82.95,1.24a1.23,1.23,0,0,1-.09.15A12.88,12.88,0,0,0,15,20.36Z" style="fill: #fefefe"/>
            <path d="M16.24,22.08a4.07,4.07,0,0,1,2.2-1.65A6.16,6.16,0,0,0,18.9,20a2.16,2.16,0,0,1,.08-.24l-.29,0-.16.06a1,1,0,0,0-.21.1,5.2,5.2,0,0,0-.7.46c-.54.43-1.33.56-1.7,1.2-.14.31-.26.62-.39.94l.63,0,.43-.24Z" style="fill: #2f323b"/>
            <path d="M6.3,20.87a8.68,8.68,0,0,0,.8-.44c.31.12.61.24.92.35a5.21,5.21,0,0,1-.5,1A4.13,4.13,0,0,0,6.3,20.87Z" style="fill: #5962a1"/>
            <path d="M9.89,21.53a.86.86,0,0,1-.45-1.2,5.28,5.28,0,0,0,.14.55c0-.12,0-.23.08-.35a1.13,1.13,0,0,0,.65.44l-.23.56Z" style="fill: #575752"/>
            <path d="M11.55,20.36l.45.28a1.66,1.66,0,0,1-.6.77c.06-.3.14-.6.23-.88l-.41.57L11,20.93c-.05.19-.11.38-.18.58-.09-.08-.24-.07-.34-.15l-.43.18.23-.56A1.39,1.39,0,0,0,11.55,20.36Z" style="fill: #8e9297"/>
            <path d="M16.34,20.76c.11-.17.22-.33.32-.5l.2.17A1.16,1.16,0,0,1,16.34,20.76Z" style="fill: #b1b1b3"/>
          </g>
          <ellipse cx="10.69" cy="11.85" rx="5" ry="5" style="mix-blend-mode: screen;fill: url(#radial-gradient)"/>
          <path d="M7.16,15.38a5,5,0,1,1,7.07,0A5,5,0,0,1,7.16,15.38Z" style="mix-blend-mode: screen;fill: url(#radial-gradient-2)"/>
          <path d="M7.16,8.31A5,5,0,0,1,9.45,7L8.39,2.92s-7,1.83-6.51,7.23l3.9.8A4.94,4.94,0,0,1,7.16,8.31Z" style="fill: #fff;opacity: 0.64"/>
          <path d="M5.69,11.85a5.23,5.23,0,0,1,.16-1.23L1.57,9.09s-2.43,6.79,2.31,9.45l3.27-3.16A5,5,0,0,1,5.69,11.85Z" style="mix-blend-mode: screen;fill: url(#radial-gradient-3)"/>
        </g>
        <path d="M18,11.61a7.39,7.39,0,1,1-7.38-7.4A7.4,7.4,0,0,1,18,11.61Z" style="fill: url(#linear-gradient)"/>
        <g style="clip-path: url(#clip-path)">
          <g>
            <path d="M16.21,1.75A15.65,15.65,0,0,0,10.8.16a.12.12,0,0,1,0,.06l0-.06A23.29,23.29,0,0,0,6.54,0C3.82,2.64,1.24,6,.59,9.69c-.56,3.13-1.4,7.7,1.23,10,4.67,4.07,14.5,5.82,17.78-.52C22.36,13.83,22.3,4.92,16.21,1.75Z" style="fill: #fff"/>
            <path d="M1.48,7.32l.1.06c-.23.34-.47.66-.68,1,0,.1,0,.2-.08.31a.8.8,0,0,0,.35.21c.45.43,1,.79,1.45,1.2l-.44.16a3.35,3.35,0,0,1-1.48,0c0,.06.06.19.08.24h.1c0,.41-.09.81-.11,1.21a1.43,1.43,0,0,1-.53.08c-.41,2.84-.52,6.1,1.57,7.92,4.67,4.07,14.5,5.82,17.78-.52,2.77-5.34,2.7-14.25-3.39-17.41A14.79,14.79,0,0,0,12.44.43a6.09,6.09,0,0,0-.65.84,4.44,4.44,0,0,1-1.05.49A6.84,6.84,0,0,0,10.66.14,24.61,24.61,0,0,0,6.54,0,21.51,21.51,0,0,0,1.33,7.21Z" style="fill: #fff"/>
            <path d="M7.42,0c.71.6,1.52,1.08,2.2,1.71A6.08,6.08,0,0,1,7.35.18,1.15,1.15,0,0,1,7.19,0L6.54,0C6,.57,5.46,1.11,5,1.69l.19.15-.34.62L4.34,2.4a2.8,2.8,0,0,0-.19.24h.2c.8-.09,1.6-.1,2.41-.13S8.25,2.43,9,2.43c-.14.28-.29.57-.43.86l.23.07a6.49,6.49,0,0,0,.71.15,6.19,6.19,0,0,0,2.43,0A7.74,7.74,0,0,1,10.7,5.87l-.46-.35c0,.35-.06.7-.11,1l-.28-.19a8.53,8.53,0,0,0,.77,2c-.09-.75.16-1.8,1-2,.06-.13.13-.24.19-.36l.06-.13c-.24-.21-.46,0-.66.18a1.81,1.81,0,0,1,.38-1.13,3.15,3.15,0,0,0,.64-1.46c.23,0,.45,0,.66-.06L13,3.23c-.09-.18-.19-.36-.28-.54l-.09-.15a8,8,0,0,0-1.1-.09,12.53,12.53,0,0,0-.86,1c0-.39,0-.77,0-1.15a8.12,8.12,0,0,0-1.54,0,5.15,5.15,0,0,1-1.81.05l.63-.13c0-.3,0-.6,0-.9A13.31,13.31,0,0,0,9.31,2c.45,0,.9-.09,1.34-.12l-.1-.14A19.49,19.49,0,0,1,8.93,0C8.43,0,7.92,0,7.42,0Z" style="fill: #fff"/>
            <path d="M6.08,3h.29c.31,0,.62.1.93.16.11.37.23.73.34,1.09.39,1.32.1,2.8.78,4,.11.23.24.43.37.66l.33-1c.11.22.22.43.33.65.37.84.83,1.68,1.17,2.54,0,.14,0,.27,0,.4v.09a3.55,3.55,0,0,1-.1.43c-.3-.31-.58-.63-.88-.95l.17-.26a7.49,7.49,0,0,0-.93-1.5,7.08,7.08,0,0,1,.11,1c-.51-.57-1-1.16-1.51-1.73-.11-.12-.21-.25-.32-.38S7,8,6.95,7.91c-.45-1-.69-2.12-1.16-3.12l.26,0,.8.15C6.61,4.3,6.25,3.68,6.08,3ZM7,5.37a.33.33,0,0,0,.13.44C7.32,5.75,7.19,5.32,7,5.37Z" style="fill: #fff"/>
            <path d="M13.37,3.27l.66,0,.35,0c-.13.45-.28.89-.41,1.33l.78.05c-.05.15-.09.3-.12.44l1-.12c-.42.88-.67,1.84-1.06,2.73a9.07,9.07,0,0,1-.32,1.18l-.43-.14c-.49.48-.91,1-1.38,1.51,0-.27-.06-.54-.06-.81A3.06,3.06,0,0,0,12.2,7.5c-.06-.22-.13-.43-.18-.64A22.15,22.15,0,0,1,13.37,3.27Zm.17,4c.7-.4.77-1.26.88-2A10.17,10.17,0,0,0,13.54,7.31Z" style="fill: #fff"/>
            <path d="M16.07,4.75c.16-.24.36-.45.55-.67,0,.23,0,.47,0,.7s-.07.46-.1.7l.07,0c.29.14.59.27.88.42l-.08.14A11.4,11.4,0,0,0,15.25,7,9.92,9.92,0,0,1,16.07,4.75Z" style="fill: #fff"/>
            <g>
              <path d="M20.13,12.23c0,.17.08.33.13.5-1.78-.11-3.53-.46-5.32-.4.2.08.4.18.59.25,1.27,0,2.49.2,3.75.28a3,3,0,0,1,1.44.3c-1.45,0-2.89-.32-4.34-.39l.32.26c-.52-.09-1-.18-1.56-.32-1-.26-2-.45-2.91-.74a4,4,0,0,0-1.37.18,1.56,1.56,0,0,0,1.76.17c.21.06.4.12.61.2.68.29,1.42.4,2.13.62a7.54,7.54,0,0,0,.85.25c1.53.24,3.08-.12,4.61.08a2.09,2.09,0,0,1,.42.12c0-.32.05-.64.08-1C20.92,12.51,20.53,12.35,20.13,12.23Z" style="fill: #fff"/>
              <path d="M19.88,7.56c.21.43.46.84.7,1.25A26.85,26.85,0,0,1,17.32,10a11.76,11.76,0,0,0-1.4.54,9.16,9.16,0,0,1,1.05.22,12.85,12.85,0,0,1-1.4.22v-.36l-.36-.18L15,10.41l-.89-.12c-.61-.1-1.1.41-1.55.75,1.1.17,2.23.08,3.33.23H16a5.71,5.71,0,0,1,2-.19,1.61,1.61,0,0,1-.12-.17,2.42,2.42,0,0,1,.67-.52,3.87,3.87,0,0,1,1.1.18c.27.09.54.18.79.29.07.33.13.65.2,1l.71.12c0-.37,0-.73,0-1.11a.62.62,0,0,1-.23-.39l.17,0A13.75,13.75,0,0,0,21,8.22a7.94,7.94,0,0,1-.67-.9C20.18,7.38,20,7.51,19.88,7.56Z" style="fill: #fff"/>
            </g>
            <path d="M12.24,13.05l.63.43a3.41,3.41,0,0,0,1.69,1.33c0,.11.09.23.15.35.33,1,.76,1.89,1.09,2.86,0,0,.05.15.06.2l-.59-.3a5.59,5.59,0,0,0,.64,1c0-.17.09-.33.14-.5l.53-.24.27.21-.53.73.39.31a2.36,2.36,0,0,1,.28.21s-.09.14-.11.19a4.81,4.81,0,0,1-1.1-.78,2.91,2.91,0,0,0-1-1.08l.45-.12c-1.11-1.47-2.67-2.57-3.54-4.23l.54-.05C12.2,13.41,12.22,13.24,12.24,13.05Z" style="fill: #fff"/>
            <path d="M12.88,19a4.85,4.85,0,0,0,2,2.21l.51.54c-.41.31-.82.6-1.2.94a7.42,7.42,0,0,1-1.35-1.84c0-.26.05-.53.08-.81l.44.07C13.21,19.72,13,19.36,12.88,19Z" style="fill: #636569"/>
            <path d="M14.36,14.31a3,3,0,0,1,1.19.88,3.34,3.34,0,0,1,.67,1.34c-.65-.3-.89-1.06-1.52-1.37-.06-.12-.1-.24-.15-.35Z" style="fill: #808286"/>
            <path d="M11.22,21.09l.41-.57c-.09.29-.16.59-.23.88-.17,0-.36.07-.54.1.07-.2.13-.39.18-.58Z" style="fill: #646565"/>
            <path d="M6.41,14.32l.42-.21c-.19.57-.4,1.13-.61,1.69-.07.11-.13.21-.19.31a11.25,11.25,0,0,1-2,1.72l-.12-.1,0-.07c.36-.64.73-1.27,1.13-1.89l.11-.17A3.08,3.08,0,0,0,6.41,14.32Z" style="fill: #3a3c47"/>
            <path d="M4.37,8.11A8.8,8.8,0,0,0,7,9c0-.08,0-.24.06-.31s.06-.3.1-.45c.1.13.2.26.32.38a3,3,0,0,0-.35.26c.11.44.26.89.41,1.32a8.85,8.85,0,0,1-1.27.14c.26-.14.52-.27.79-.39l-.93-.53a16.6,16.6,0,0,0-1.88-.94C4.27,8.34,4.33,8.22,4.37,8.11ZM6.22,9.29l.43.25A.9.9,0,0,0,6.86,9,1.94,1.94,0,0,0,6.22,9.29Z" style="fill: #bababa"/>
            <path d="M10.61,11.5l.61-.35-.32.52c-.1.13-.19.24-.29.38,0-.16,0-.31,0-.46Z" style="fill: #494a49"/>
            <path d="M2.23,10.56l.36,0a1.94,1.94,0,0,0,.51,0l.13.19c0,.08,0,.17,0,.25l-.51,0C2.55,10.87,2.4,10.72,2.23,10.56Z" style="fill: #858f9b"/>
            <path d="M6.22,9.29A1.94,1.94,0,0,1,6.86,9a.9.9,0,0,1-.22.54Z" style="fill: #99999b"/>
            <path d="M18.36,17.57a9.43,9.43,0,0,0,.87,1.54l-.28.21a6.62,6.62,0,0,0-.77-1.5l0,0A2.19,2.19,0,0,1,18.36,17.57Z" style="fill: #f8f9fa"/>
            <path d="M3,10.43l1.12.15-.59.12.63.23a9.39,9.39,0,0,1-.94.08c0-.08,0-.17,0-.25l-.13-.19Z" style="fill: #cdd2da"/>
            <path d="M10.6,12.26c.13.18.25.35.35.54a14.47,14.47,0,0,0,.81,1.65,16.35,16.35,0,0,0,1.47,2.8c-.19-.06-.5,0-.61-.19-.28-.48-.45-1-.75-1.49-.16-.31-.29-.61-.43-.92a10.62,10.62,0,0,1-.55-1.23c-.07-.2-.15-.39-.24-.59,0,.2-.06.4-.08.6l-.29-.08c.06-.23.1-.48.15-.72l0-.1C10.51,12.46,10.56,12.32,10.6,12.26Z" style="fill: #fcfefe"/>
            <path d="M11.57,1.95c.82-.05,1.33-.79,2.12-.87.22.59-.53.78-.81,1.15A5.54,5.54,0,0,1,11.57,1.95Z" style="fill: #777a74"/>
            <path d="M7.88,1.28A13.31,13.31,0,0,0,9.31,2l-.48,0,.27.19a5.15,5.15,0,0,1-1.81.05l.63-.13C7.9,1.88,7.88,1.58,7.88,1.28Z" style="fill: #d5d6d7"/>
            <path d="M13.58,2.31a6.34,6.34,0,0,1,1.21-.94c-.08.25-.14.51-.2.77l.26,0c.06.11.12.23.17.34l-.36.09A10.73,10.73,0,0,0,13.58,2.31Z" style="fill: #7e7d7e"/>
            <path d="M9.31,2c.45,0,.9-.09,1.34-.12h.08l.5,0,.14.07-.45.19.79,0-.2.18a12.53,12.53,0,0,0-.86,1c0-.39,0-.77,0-1.15a8.12,8.12,0,0,0-1.54,0l-.27-.19Z" style="fill: #a8a7a9"/>
            <path d="M11.23,2l.34,0a5.54,5.54,0,0,0,1.3.27l.71.09a10.73,10.73,0,0,1,1.07.22l.1,0a5.79,5.79,0,0,0-2.14,0,8,8,0,0,0-1.1-.09l.2-.18-.79,0L11.37,2Z" style="fill: #cbd7ea"/>
            <path d="M4.35,2.63c.8-.09,1.6-.1,2.41-.13a9.57,9.57,0,0,1,1,.07c0,.2-.07.4-.08.61a3.61,3.61,0,0,0,0,.47c0,.19,0,.4,0,.6-.11-.36-.23-.72-.34-1.09C7,3.09,6.69,3,6.37,3l-.54-.06c.16.63.41,1.25.56,1.89H6l-.26,0c.46,1,.7,2.1,1.16,3.12-.13-.1-.28-.18-.41-.28a2.38,2.38,0,0,0-.14-.25c-.07-.14-.14-.29-.2-.44-.31-.79-.53-1.62-.85-2.41a4.78,4.78,0,0,0-.21-1.68A2.39,2.39,0,0,0,4.35,2.63Z" style="fill: #8c8d8f"/>
            <path d="M6.76,2.5c.74,0,1.49-.07,2.24-.07-.14.28-.29.57-.43.86l.23.07-.26.12L8.22,3.3l-.53-.12c0-.2.05-.41.08-.61A9.57,9.57,0,0,0,6.76,2.5Z" style="fill: #9ea0a3"/>
            <path d="M12.61,2.53a5.79,5.79,0,0,1,2.14,0c.55.1,1.12.08,1.69.15l.41.14c-.45.08-.9.13-1.36.17-.25.51-.51,1-.74,1.55L14,4.52c.13-.44.28-.88.41-1.33l-.35,0,.36-.1a7.68,7.68,0,0,1-1.69-.44Z" style="fill: #73746d"/>
            <path d="M5.83,2.93,6.37,3H6.08c.17.7.53,1.31.76,2L6,4.82h.35C6.24,4.18,6,3.56,5.83,2.93Z" style="fill: #dfcaad"/>
            <path d="M12.7,2.69a7.68,7.68,0,0,0,1.69.44l-.36.1-.66,0-.39,0C12.88,3.05,12.78,2.87,12.7,2.69Z" style="fill: #8d8e8e"/>
            <g>
              <path d="M4.89,4c.15.19.3.36.46.54.32.79.54,1.62.85,2.41a2.84,2.84,0,0,1-.38-.25c0-.49-.39-.75-.76-1C5,5.14,4.91,4.57,4.89,4Z" style="fill: #fff"/>
              <path d="M9.58,20.88c0-.12,0-.23.08-.35a1.13,1.13,0,0,0,.65.44,1.39,1.39,0,0,0,1.23-.61l.45.28,0-.1c0-.3.08-.6.12-.91,0-.1,0-.21,0-.33l.31-.14c-.19-1.06-.94-1.9-1-3l-.6.24c0,.95,0,1.91-.07,2.86l-.16-.11-.12-.05-.31.26c0-1.11.11-2.2,0-3.3l-.24,0-.09,0-.24-.27a2.54,2.54,0,0,1-.06.28c-.09.47-.22.92-.33,1.37-.13.66-.41,1.28-.48,2l-.62.31c0,.19,0,.37.08.56a1.91,1.91,0,0,1,.14.16,7.52,7.52,0,0,0,.41-.87,20.27,20.27,0,0,1,.37,3.44l.49.1a5.45,5.45,0,0,1-.12-.85,2.81,2.81,0,0,1,.45-.63,1,1,0,0,1-.08-.15.86.86,0,0,1-.45-1.2A5.28,5.28,0,0,0,9.58,20.88Z" style="fill: #fff"/>
            </g>
            <path d="M18.27,18.63a5,5,0,0,0,.74.94l.05,0a2.58,2.58,0,0,0-.37.12l-.16.06A9.32,9.32,0,0,1,18.27,18.63Z" style="fill: #eff0f0"/>
            <path d="M4.54,5.11c0-.63-.13-1.26-.1-1.89A6.85,6.85,0,0,1,4.89,4c0,.58.11,1.14.17,1.71A3.31,3.31,0,0,1,4.54,5.11Z" style="fill: #373739"/>
            <path d="M7.67,3.64a3.61,3.61,0,0,1,0-.47l.53.12A20.37,20.37,0,0,0,9,5.65a1.83,1.83,0,0,0,.49.79,5.9,5.9,0,0,1-.21.77C8.36,6.22,8.35,4.75,7.67,3.64Z" style="fill: #c2c1c4"/>
            <path d="M8.22,3.3l.32.18c.29.86.76,1.64,1,2.5,0,.16-.05.31-.08.46A1.83,1.83,0,0,1,9,5.65,20.37,20.37,0,0,1,8.22,3.3Z" style="fill: #eaf2fb"/>
            <path d="M13,3.23l.39,0A22.15,22.15,0,0,0,12,6.85c-.07-.29-.13-.56-.19-.84l.06-.13c.3-.84.73-1.63,1-2.46Z" style="fill: #aaacad"/>
            <path d="M8.54,3.48l.26-.12a15.11,15.11,0,0,0,.68,1.47H10a5.49,5.49,0,0,1,.29.7c0,.35-.06.7-.11,1l-.28-.19a3.09,3.09,0,0,0-.26-.26l0-.13C9.3,5.12,8.83,4.34,8.54,3.48Z" style="fill: #495480"/>
            <path d="M8.8,3.36a6.49,6.49,0,0,0,.71.15A2.68,2.68,0,0,0,10,4.82H9.48A15.11,15.11,0,0,1,8.8,3.36Z" style="fill: #777678"/>
            <path d="M17.17,3.17c-.05.64-.15,1.27-.21,1.92l-.35.41-.07,0c0-.23.07-.47.1-.7A2.36,2.36,0,0,1,17.17,3.17Z" style="fill: #5b5b5c"/>
            <path d="M9.51,3.51a6.19,6.19,0,0,0,2.43,0A7.74,7.74,0,0,1,10.7,5.87l-.46-.35a5.49,5.49,0,0,0-.29-.7A2.68,2.68,0,0,1,9.51,3.51Z" style="fill: #babdbf"/>
            <path d="M12.24,3.47c.23,0,.45,0,.66-.06-.3.83-.73,1.63-1,2.46-.24-.21-.46,0-.66.18a1.81,1.81,0,0,1,.38-1.13A3.15,3.15,0,0,0,12.24,3.47Z" style="fill: #c1d4e6"/>
            <path d="M7.67,3.64c.68,1.11.69,2.59,1.62,3.57l-.12.25a3,3,0,0,0-.69-.69,4,4,0,0,0-.06,1.5C7.74,7,8,5.55,7.64,4.24,7.65,4,7.66,3.83,7.67,3.64Z" style="fill: #ababab"/>
            <path d="M17.4,6.07l.83-.27c.37-.13.75-.27,1.11-.38.35.61.61,1.28.95,1.9a7.94,7.94,0,0,0,.67.9A10.51,10.51,0,0,0,18.8,3.84a14.36,14.36,0,0,0-1.32,2.09Z" style="fill: #a0a0a6"/>
            <path d="M.77,14.43c.87-.25,1.76-.42,2.65-.61-.06.28-.11.55-.17.83H2.62l-.29,0-.34,0a4.5,4.5,0,0,0-.74,0,.21.21,0,0,0-.25.21C.92,14.68.85,14.56.77,14.43Z" style="fill: #7a797b"/>
            <path d="M15.87,4.47l.21.29A9.92,9.92,0,0,0,15.25,7c-.07.12-.13.24-.18.36h0l-.48.24c.39-.89.63-1.84,1.06-2.73C15.7,4.75,15.78,4.61,15.87,4.47Z" style="fill: #8fa0bc"/>
            <path d="M4,5.41c.24.84,1.14,1,1.82,1.28a2.84,2.84,0,0,0,.38.25c.06.15.13.3.2.44C5,7.08,3.6,6.59,2.18,6.29c.08-.13.16-.27.23-.4A4.7,4.7,0,0,0,4,5.61Z" style="fill: #b7b7b8"/>
            <path d="M7,5.37c.19-.05.33.38.13.44A.33.33,0,0,1,7,5.37Z" style="fill: #bdc8d0"/>
            <g>
              <path d="M13.54,7.31a10.17,10.17,0,0,1,.88-2C14.32,6,14.24,6.91,13.54,7.31Z" style="fill: #79787b"/>
              <path d="M9.59,6.11a3.09,3.09,0,0,1,.26.26,8.53,8.53,0,0,0,.77,2l0,.1c.36-.67.67-1.37,1-2.07.06-.13.13-.24.19-.36.06.28.12.56.19.84s.12.42.18.64a4.1,4.1,0,0,1-.36,1.16A2.21,2.21,0,0,0,10.69,9c0,.36-.06.74-.07,1.1a3.23,3.23,0,0,0-.14-1.23A19.88,19.88,0,0,1,9.59,6.11Z" style="fill: #79787b"/>
            </g>
            <path d="M18.23,5.8c.37-.13.75-.27,1.11-.38.35.61.61,1.28.95,1.9-.11.07-.3.19-.41.24l-.06,0c-.08-.16-.17-.32-.25-.48l-.28-.61A1,1,0,0,0,18.23,5.8Z" style="fill: #4a494b"/>
            <path d="M9.49,6.44c0-.15.06-.3.08-.46l0,.13a19.88,19.88,0,0,0,.88,2.74l-1-.29c-.11-.23-.22-.43-.33-.65l-.33,1c-.13-.23-.26-.43-.37-.66a4,4,0,0,1,.06-1.5,3,3,0,0,1,.69.69l.12-.25A5.9,5.9,0,0,0,9.49,6.44Z" style="fill: #9f9fa1"/>
            <g>
              <path d="M17.4,6.07l.83-.27a1,1,0,0,1,1.07.71c-1,.19-2,.5-3,.76-.41.09-.86.36-1.26.1.06-.12.12-.25.18-.36A11.4,11.4,0,0,1,17.4,6.07Z" style="fill: #717172"/>
              <path d="M19.58,7.12c.08.16.17.31.25.48-.72.48-1.49.92-2.24,1.37s-1.52,1-2.31,1.42V9.94c0-.21.06-.43.09-.64a5.21,5.21,0,0,1-.75.51c0-.2,0-.4,0-.61a22.45,22.45,0,0,1,3.66-1.34C18.72,7.66,19.45,7.69,19.58,7.12Z" style="fill: #717172"/>
            </g>
            <path d="M2.18,6.29c1.42.31,2.8.79,4.21,1.09a2.38,2.38,0,0,1,.14.25,3,3,0,0,0,.5,1C7,8.72,7,8.88,7,9a8.8,8.8,0,0,1-2.61-.85c-.48-.19-1-.35-1.44-.52l-.27-.16c-.25-.21-.48-.44-.72-.68Z" style="fill: #f2f2f3"/>
            <path d="M1.24,12.17a1.26,1.26,0,0,0,.48-.55c1.29.13,2.61-.23,3.87.08L6,12c-.7.1-1.38.25-2.09.31a.91.91,0,0,0-.61.3c-.4,0-.78.06-1.17.09l-1.31,0A3.53,3.53,0,0,1,1.24,12.17Z" style="fill: #89898a"/>
            <path d="M10.62,8.34c-.09-.75.16-1.8,1-2-.31.7-.61,1.4-1,2.07Z" style="fill: #515d76"/>
            <path d="M16.32,7.27c1-.26,2-.57,3-.76l.28.61c-.13.57-.86.54-1.31.74a22.45,22.45,0,0,0-3.66,1.34c.12-.61.28-1.22.44-1.81h0C15.46,7.63,15.91,7.35,16.32,7.27Z" style="fill: #798091"/>
            <path d="M1.48,7.32l.37-.2c.28.1.55.19.81.31l.27.16c.24.18.46.37.68.57a5.45,5.45,0,0,1-2-.78Z" style="fill: #b9bfcb"/>
            <path d="M1.17,8.9a15.3,15.3,0,0,1,3.13,1L4.08,9a9.41,9.41,0,0,1-1-.72,5.62,5.62,0,0,1,1.17.19c0-.11.1-.23.14-.34-.48-.19-1-.35-1.44-.52.24.18.46.37.68.57a5.45,5.45,0,0,1-2-.78c-.23.34-.47.66-.68,1,0,.1,0,.2-.08.31A.8.8,0,0,0,1.17,8.9Z" style="fill: #8f9190"/>
            <path d="M14.57,7.61l.48-.24c-.16.6-.33,1.2-.44,1.81,0,.2,0,.4,0,.61a5.21,5.21,0,0,0,.75-.51c0,.21-.07.43-.09.64l-.06.55L15,10.41a2.11,2.11,0,0,1-.85-.59,2.33,2.33,0,0,1,.11-1A9.07,9.07,0,0,0,14.57,7.61Z" style="fill: #d8d9da"/>
            <path d="M6.54,7.63c.13.1.28.17.41.28s.12.19.19.29-.07.3-.1.45A3,3,0,0,1,6.54,7.63Z" style="fill: #d6d8da"/>
            <path d="M12.2,7.5a3.06,3.06,0,0,1,.18,1.86c-.44.56-.75,1.23-1.17,1.8l-.61.35c0-.13,0-.27,0-.4.43-.8.82-1.64,1.23-2.45A4.1,4.1,0,0,0,12.2,7.5Z" style="fill: #c4c8ce"/>
            <path d="M.7,10.25a3.35,3.35,0,0,0,1.48,0l.41.34-.36,0a3.19,3.19,0,0,0-1.35-.08H.78C.76,10.44.72,10.31.7,10.25Z" style="fill: #4f5052"/>
            <path d="M19.83,7.59l.06,0c.21.43.46.84.7,1.25A26.85,26.85,0,0,1,17.32,10c.1-.35.19-.71.27-1.07C18.33,8.51,19.11,8.07,19.83,7.59Z" style="fill: #c1ad96"/>
            <path d="M3.06,8.26a5.62,5.62,0,0,1,1.17.19,16.6,16.6,0,0,1,1.88.94c0,.27,0,.53-.06.79a20,20,0,0,1-2-1.2A9.41,9.41,0,0,1,3.06,8.26Z" style="fill: #808081"/>
            <path d="M7.11,8.84a3,3,0,0,1,.35-.26c.5.58,1,1.17,1.51,1.73a1.06,1.06,0,0,1,.08.13c-.06.19-.12.39-.17.59l.65.46c-.3,0-.61,0-.91,0a4,4,0,0,1,.07-.54,1.16,1.16,0,0,0-.14-.09l-.21-.13c-.28-.18-.54-.37-.82-.53C7.37,9.73,7.22,9.28,7.11,8.84Z" style="fill: #6d7385"/>
            <path d="M9.44,8.56l1,.29a3.23,3.23,0,0,1,.14,1.23c0,.34,0,.69,0,1C10.27,10.24,9.81,9.4,9.44,8.56Z" style="fill: #cdd0d3"/>
            <path d="M1.17,8.9a15.3,15.3,0,0,1,3.13,1c.39.13.79.29,1.18.44a8,8,0,0,1-1.06.26L5.75,11a2.08,2.08,0,0,1,.1.24l.54.08a1.27,1.27,0,0,1-.16.24c-.56-.08-1.12-.19-1.69-.26.28,0,.56-.1.83-.16a4.93,4.93,0,0,0-1.21-.17l-.63-.23.59-.12L3,10.43c-.12-.12-.25-.22-.38-.33C2.13,9.69,1.62,9.34,1.17,8.9Z" style="fill: #68666f"/>
            <path d="M10.69,9a2.21,2.21,0,0,1,1.16-.33c-.41.81-.8,1.65-1.23,2.45,0-.33,0-.69,0-1S10.66,9.34,10.69,9Z" style="fill: #474946"/>
            <path d="M12.45,10.16c.46-.51.89-1,1.38-1.51l.43.14a2.33,2.33,0,0,0-.11,1,2.11,2.11,0,0,0,.85.59l-.89-.12c-.61-.1-1.1.41-1.55.75-.12-.2-.24-.39-.35-.6Z" style="fill: #b7b8b8"/>
            <path d="M4.08,9a20,20,0,0,0,2,1.2l-.25.56H5.74c0-.07,0-.23,0-.3l-.24-.08c-.39-.15-.78-.31-1.18-.44Z" style="fill: #aeb1ae"/>
            <path d="M15.28,10.38c.79-.45,1.54-1,2.31-1.42-.07.36-.16.72-.27,1.07a11.76,11.76,0,0,0-1.4.54l-.35.08-.36-.18.06-.55Z" style="fill: #dcc3a5"/>
            <path d="M6.11,9.39,7,9.91c-.27.12-.53.25-.79.39a8.85,8.85,0,0,0,1.27-.14c.28.16.54.35.82.53a14.91,14.91,0,0,1-2.53.05l.25-.56C6.09,9.91,6.09,9.66,6.11,9.39Z" style="fill: #feffff"/>
            <path d="M8.86,9.32a7.49,7.49,0,0,1,.93,1.5l-.17.26a7.67,7.67,0,0,1-.57-.64A1.06,1.06,0,0,0,9,10.31,7.08,7.08,0,0,0,8.86,9.32Z" style="fill: #cbcdcc"/>
            <path d="M11.22,11.16c.42-.58.72-1.24,1.17-1.8,0,.28,0,.55.06.81l-.25.27a8.52,8.52,0,0,1-1.3,1.24Z" style="fill: #dff0f2"/>
            <path d="M2.18,10.26l.44-.16c.13.1.26.21.38.33l.1.14a1.94,1.94,0,0,1-.51,0Z" style="fill: #5168af"/>
            <path d="M5.47,10.35l.24.08c0,.08,0,.23,0,.3s0,.17,0,.23l-1.34-.35A8,8,0,0,0,5.47,10.35Z" style="fill: #9a9694"/>
            <path d="M.88,10.48a3.19,3.19,0,0,1,1.35.08c.17.15.32.31.49.45-.67.16-1.28.49-1.95.67C.79,11.29.83,10.89.88,10.48Z" style="fill: #c3cae8"/>
            <path d="M9.05,10.44a7.67,7.67,0,0,0,.57.64c.3.31.59.63.88.95a3.55,3.55,0,0,0,.1-.43c0,.15,0,.3,0,.46l-.05.07L9.86,12a2.72,2.72,0,0,0-1.25.23l-.4-.13.88-.23-1-.11-.36-.15.56-.16.31-.05c.3,0,.61,0,.91,0L8.88,11C8.93,10.83,9,10.62,9.05,10.44Z" style="fill: #afc8c2"/>
            <path d="M10.9,11.68a8.52,8.52,0,0,0,1.3-1.24c.11.21.23.4.35.6a1.42,1.42,0,0,0,.82.66c-.22,0-.44.11-.67.17l-.47.1a4,4,0,0,0-1.37.18,1.56,1.56,0,0,0,1.76.17l-.2.37c-.18,0-.34.1-.51.15l-1-.05c-.11-.18-.23-.36-.35-.54,0,.07-.09.2-.12.28A6.24,6.24,0,0,0,9.86,12l.7.08.05-.07C10.71,11.92,10.8,11.81,10.9,11.68Z" style="fill: #a1a0ab"/>
            <path d="M18.54,10.37a3.87,3.87,0,0,1,1.1.18c-.3.24-.61.46-.92.69.46.28,1,.48,1.28,1a1.77,1.77,0,0,1-.72.06c-1.13-.13-2.26-.22-3.39-.32a2,2,0,0,0-1.13.31,10.64,10.64,0,0,0-2.06-.42c.23-.06.44-.13.67-.17l.29,0c.88.17,1.95.5,2.72-.15a1.45,1.45,0,0,1,.76-.29,4.1,4.1,0,0,0,1.06.08l-.11-.12L18,11.06a1.61,1.61,0,0,1-.12-.17A2.42,2.42,0,0,1,18.54,10.37Z" style="fill: #8d8b93"/>
            <path d="M5.74,10.74h.07a14.91,14.91,0,0,0,2.53-.05l.21.13a10.47,10.47,0,0,1-2.8.15C5.75,10.91,5.74,10.79,5.74,10.74Z" style="fill: #90bbe4"/>
            <path d="M1.72,11.62a12.34,12.34,0,0,1,2.82-.36c.28,0,.56-.1.83-.16a4.93,4.93,0,0,0-1.21-.17,9.39,9.39,0,0,1-.94.08l-.51,0c-.67.16-1.28.49-1.95.67a1.43,1.43,0,0,1-.53.08c0,.24-.07.45-.1.69l1.09-.28A1.26,1.26,0,0,0,1.72,11.62Z" style="fill: #727273"/>
            <path d="M8.55,10.82a1.16,1.16,0,0,1,.14.09,4,4,0,0,0-.07.54l-.31.05c-.52-.05-1-.15-1.54-.18H6.68l-.29,0-.54-.08a2.08,2.08,0,0,0-.1-.24A10.47,10.47,0,0,0,8.55,10.82Z" style="fill: #7897c0"/>
            <path d="M15.57,10.66l.35-.08a9.16,9.16,0,0,1,1.05.22,12.85,12.85,0,0,1-1.4.22Z" style="fill: #797a79"/>
            <path d="M1.72,11.62a12.34,12.34,0,0,1,2.82-.36c.57.07,1.13.18,1.69.26a1.55,1.55,0,0,1-.64.17C4.33,11.39,3,11.75,1.72,11.62Z" style="fill: #c3d5d3"/>
            <path d="M6.39,11.29l.29,0c-.6.2.43.5.09,0,.52,0,1,.13,1.54.18l-.56.16.36.15c-.86.23-1.72.48-2.56.76-.75-.06-1.48,0-2.23,0a.91.91,0,0,1,.61-.3c.7-.06,1.38-.21,2.09-.31l-.43-.29a1.55,1.55,0,0,0,.64-.17A1.27,1.27,0,0,0,6.39,11.29Z" style="fill: #999a99"/>
            <path d="M12.55,11c1.1.17,2.23.08,3.33.23a8.14,8.14,0,0,1-2.22.4l-.29,0A1.42,1.42,0,0,1,12.55,11Z" style="fill: #bbcbc9"/>
            <path d="M16,11.25a5.71,5.71,0,0,1,2-.19l.09.12a6.54,6.54,0,0,0-1,0,1.45,1.45,0,0,0-.76.29C16.23,11.43,16.08,11.34,16,11.25Z" style="fill: #d5d9d7"/>
            <path d="M6.77,11.33c.34.49-.69.19-.09,0Z" style="fill: #dadcdc"/>
            <path d="M15.88,11.26H16c.13.08.28.18.43.26-.77.65-1.84.32-2.72.15A8.14,8.14,0,0,0,15.88,11.26Z" style="fill: #686968"/>
            <path d="M17.14,11.22a6.54,6.54,0,0,1,1,0l.11.12A4.1,4.1,0,0,1,17.14,11.22Z" style="fill: #666767"/>
            <path d="M8.12,11.81l1,.11-.88.23c-1.19.29-2.38.55-3.58.79l-.11,0,.34-.19.7-.2C6.39,12.29,7.25,12,8.12,11.81Z" style="fill: #474848"/>
            <path d="M8.61,12.28A2.72,2.72,0,0,1,9.86,12a6.24,6.24,0,0,1,.61.49l0,.1h-.1c-.8,0-1.23.74-1.76,1.19a24.69,24.69,0,0,1-2.37,2c.21-.56.42-1.11.61-1.69l-.42.21c-.22.09-.46.17-.7.25.13-.49.5-1,.23-1.51A17.5,17.5,0,0,0,8.61,12.28Z" style="fill: #98999b"/>
            <path d="M12.23,12l.47-.1a10.64,10.64,0,0,1,2.06.42l.18,0c.2.08.4.18.59.25l-.4.12C14.17,12.44,13.18,12.26,12.23,12Z" style="fill: #6d6d6c"/>
            <path d="M4.64,12.94c1.2-.25,2.39-.51,3.58-.79l.4.13a17.5,17.5,0,0,1-2.67.78c.28.5-.09,1-.23,1.51a.85.85,0,0,1-.06.12c-.36.23-.75.41-1.1.64-.5-.19-1-.58-1.56-.31l-.37-.36h.62c1.05.19,1.58-.85,2.29-1.42a2.26,2.26,0,0,0-.88,0,2.75,2.75,0,0,1-1.16,0Z" style="fill: #f6f6f9"/>
            <path d="M14.77,12.29A2,2,0,0,1,15.9,12c1.13.1,2.26.19,3.39.32a1.77,1.77,0,0,0,.72-.06l.12,0c0,.17.08.33.13.5-1.78-.11-3.53-.46-5.32-.4Z" style="fill: #d6d8db"/>
            <path d="M.76,12.77l.09-.11,1.31,0c.89.11,1.79,0,2.7.09L4.52,13l.11,0-1.14.35a7.91,7.91,0,0,0-3,.49,5.29,5.29,0,0,0,.29-.54c-.14,0-.29-.1-.44-.15a2.42,2.42,0,0,1,1.05-.25Zm.2.32a8.33,8.33,0,0,0,3.39-.24C3.22,12.75,2.11,13.07,1,13.08Z" style="fill: #bcc3c1"/>
            <g>
              <path d="M2.16,12.68c.39,0,.77-.07,1.17-.09.75,0,1.48-.09,2.23,0l-.7.2C4,12.71,3.05,12.79,2.16,12.68Z" style="fill: #fbfdff"/>
              <path d="M21,15.22h-.19A3.46,3.46,0,0,0,20.59,14l-.4.58-.28,0a11.13,11.13,0,0,1-2.3-.5,4.59,4.59,0,0,1,.06.46,6,6,0,0,1,1.39.29,7,7,0,0,1-1.39,0l.18.19c.19.2.38.39.57.6.58-.2,1-.63,1.63-.82-.15.3-.34.58-.52.87s-.27.43-.4.64-.21.34-.33.52l.38.16c.36,0,.72-.06,1.07-.1,0-.14-.08-.29-.12-.43l.46.19C20.73,16.21,20.86,15.71,21,15.22Z" style="fill: #fbfdff"/>
            </g>
            <path d="M12.62,12.32c.21.06.4.12.61.2,0,0,0,.16,0,.22-.27,0-.53,0-.79,0Z" style="fill: #78797d"/>
            <path d="M8.59,13.83c.54-.45,1-1.22,1.76-1.19-.46.83-1,1.64-1.44,2.46l-.6.23c0-.08,0-.21,0-.28a4.91,4.91,0,0,0,.35-.76c-1,.65-1.61,1.81-2.74,2.28.05-.16.09-.32.15-.47s.12-.2.19-.31A24.69,24.69,0,0,0,8.59,13.83Z" style="fill: #acacad"/>
            <path d="M13.23,12.52c.68.29,1.42.4,2.13.62a1.53,1.53,0,0,1,.08.19c-.2.46,0,1,0,1.43a.55.55,0,0,1,0,.15,2.16,2.16,0,0,1,.05.27,3,3,0,0,0-1.19-.88c-.51-.26-1-.57-1.49-.82l-.63-.43c-.1-.08-.21-.14-.33-.21.16-.05.33-.11.51-.15s.53,0,.79,0C13.22,12.68,13.23,12.57,13.23,12.52Z" style="fill: #a4a59e"/>
            <path d="M1,13.08c1.15,0,2.26-.33,3.39-.24A8.33,8.33,0,0,1,1,13.08Z" style="fill: #e7edf2"/>
            <path d="M8.91,15.1c.49-.82,1-1.63,1.44-2.46h.1c-.06.24-.09.49-.15.72-.2.85-.43,1.68-.66,2.52a2.54,2.54,0,0,1-.06.28,2.75,2.75,0,0,1-.42.39,5.28,5.28,0,0,0,.15-.62c-.4.33-.54.86-.88,1.23a1.86,1.86,0,0,1-.79,0C8,16.57,8.37,16,8.7,15.42,8.78,15.31,8.84,15.2,8.91,15.1Z" style="fill: #7f8080"/>
            <path d="M15.54,12.58c1.27,0,2.49.2,3.75.28a3,3,0,0,1,1.44.3c-1.45,0-2.89-.32-4.34-.39l.32.26c-.52-.09-1-.18-1.56-.32Z" style="fill: #cad1d7"/>
            <path d="M11,12.79l1,.05c.11.07.23.13.33.21-.27.08-.54.15-.82.21a4,4,0,0,0,.2.38c.87,1.66,2.43,2.77,3.54,4.23l-.45.12a2.91,2.91,0,0,1,1,1.08l-.33-.16a5.56,5.56,0,0,1-1.64-1.08c-.35-.67-.81-1.29-1.15-2a4,4,0,0,0-.89-1.42A14.47,14.47,0,0,1,11,12.79Z" style="fill: #c2c1c1"/>
            <path d="M.1,13.29l.3-.19c.15.05.3.11.44.15a5.29,5.29,0,0,1-.29.54l-.13,0Z" style="fill: #707071"/>
            <path d="M10.66,12.82c.09.19.16.39.24.59A2.13,2.13,0,0,0,10.56,15l-.56.4c0,.15,0,.31,0,.46s0,.16,0,.25l-.09,0-.24-.27c.23-.84.46-1.67.66-2.52l.29.08C10.61,13.23,10.64,13,10.66,12.82Z" style="fill: #9da5b7"/>
            <path d="M.54,13.78a7.91,7.91,0,0,1,3-.49,2.75,2.75,0,0,0,1.16,0,1.66,1.66,0,0,1,.15.26l-1.38.28c-.89.19-1.78.36-2.65.61a1.2,1.2,0,0,0-.12-.2C.57,14.1.48,14,.41,13.81Z" style="fill: #c3ddd4"/>
            <path d="M4.65,13.29a2.26,2.26,0,0,1,.88,0c-.71.56-1.24,1.61-2.29,1.42.06-.29.11-.55.17-.83l1.38-.28A1.66,1.66,0,0,0,4.65,13.29Z" style="fill: #b9b9ba"/>
            <path d="M11.42,13.26c.28-.06.55-.13.82-.21,0,.18,0,.36-.07.54l-.54.05A4,4,0,0,1,11.42,13.26Z" style="fill: #dededd"/>
            <path d="M15.36,13.15a7.54,7.54,0,0,0,.85.25c0,.06,0,.17.05.23,1.23.32,2.46.55,3.66,1a11.13,11.13,0,0,1-2.3-.5,4.59,4.59,0,0,1,.06.46,6,6,0,0,1,1.39.29,7,7,0,0,1-1.39,0c-.61,0-1.22,0-1.83-.06a8.51,8.51,0,0,0,1.14,0,4.39,4.39,0,0,0-1.55-1.42A1.53,1.53,0,0,0,15.36,13.15Z" style="fill: #bcbcbb"/>
            <path d="M10.9,13.41a10.62,10.62,0,0,0,.55,1.23c0,.14-.07.27-.11.4-.12-.28-.2-.56-.31-.84.07.37.13.75.2,1.13L10.56,15A2.13,2.13,0,0,1,10.9,13.41Z" style="fill: #caced3"/>
            <path d="M12.87,13.49c.51.26,1,.57,1.49.82l.2.51A3.41,3.41,0,0,1,12.87,13.49Z" style="fill: #d1d0d1"/>
            <path d="M15.49,14.77c0-.48-.25-1,0-1.43A4.39,4.39,0,0,1,17,14.76a8.51,8.51,0,0,1-1.14,0Z" style="fill: #8a8a8a"/>
            <path d="M16.21,13.4c1.53.24,3.08-.12,4.61.08l-.22.56-.4.58-.28,0c-1.2-.4-2.43-.63-3.66-1C16.24,13.57,16.23,13.45,16.21,13.4Z" style="fill: #878695"/>
            <path d="M4.13,16.13c.19-.39.52-.61.94-.36-.4.62-.77,1.25-1.13,1.89a3.86,3.86,0,0,1-.72,0C3.28,17.07,3.82,16.65,4.13,16.13Z" style="fill: #fff"/>
            <path d="M5.72,14.57c.24-.07.48-.16.7-.25A3.08,3.08,0,0,1,5.19,15.6c.16-.31.32-.6.47-.91A.85.85,0,0,0,5.72,14.57Z" style="fill: #616686"/>
            <path d="M5.88,16.57C7,16.11,7.63,14.94,8.63,14.3a4.91,4.91,0,0,1-.35.76,11,11,0,0,0-1.88,2c-.09.12,0,.26,0,.38-.1.12-.2.21-.31.32l-.06.06c-.34.25-.52.67-.9.86,0-.19.1-.37.13-.55A4.58,4.58,0,0,1,5.88,16.57Z" style="fill: #d9dbdb"/>
            <path d="M11.23,15.34c-.07-.38-.13-.76-.2-1.13.1.28.18.56.31.84,0-.13.07-.26.11-.4.14.31.27.61.43.92l-.21,0-.32-.47c.1,1.67,1.32,3,1.41,4.73-.1-.2-.18-.42-.28-.63-.19-1.06-.94-1.9-1-3l-.6.24c0,.95,0,1.91-.07,2.86l-.16-.11a32.93,32.93,0,0,1,0-3.62c0-.18,0-.37,0-.55Z" style="fill: #9a9b9e"/>
            <path d="M1,14.81a.21.21,0,0,1,.25-.21.71.71,0,0,1-.1.43Z" style="fill: #4e5356"/>
            <path d="M1.25,14.6a4.5,4.5,0,0,1,.74,0c-.25,0-.48.05-.73.06.3.37.72.6,1,1,0,.23-.2.38-.33.55L1.78,16a9.84,9.84,0,0,1-.63-1A.71.71,0,0,0,1.25,14.6Z" style="fill: #868788"/>
            <path d="M1.26,14.67c.26,0,.49-.05.73-.06a1.47,1.47,0,0,0,.56.92l.32-.15.06.35a2.69,2.69,0,0,0-.77,1,3.2,3.2,0,0,1-1.51.16l.17-.4-.07-.21a.77.77,0,0,0,1-.19l.12.16c.12-.16.32-.32.33-.55C2,15.27,1.56,15,1.26,14.67Z" style="fill: #e3e4dd"/>
            <path d="M2,14.61l.34,0,.51.58,0,.15-.32.15A1.47,1.47,0,0,1,2,14.61Z" style="fill: #b8bfd4"/>
            <path d="M2.34,14.64l.29,0L3,15c.54-.27,1.07.12,1.56.31l-.24.15-.41-.14a1.34,1.34,0,0,1-.41.69l-.17.07a2.35,2.35,0,0,0-.46-.86Z" style="fill: #999a9d"/>
            <path d="M11.76,14.44a4,4,0,0,1,.89,1.42c.34.68.8,1.3,1.15,2a5.59,5.59,0,0,0,1.09,2.76,6.38,6.38,0,0,0,.79,1l-.29.19-.51-.54a17.58,17.58,0,0,1-2.2-3.85h.61l-.06-.1A16.35,16.35,0,0,1,11.76,14.44Z" style="fill: #838587"/>
            <path d="M4.55,15.33c.36-.23.74-.41,1.1-.64-.15.31-.31.61-.47.91l-.11.17c-.42-.26-.75,0-.94.36L3.48,16a1.34,1.34,0,0,0,.41-.69l.41.14Z" style="fill: #bec2e3"/>
            <path d="M15.5,14.92a.55.55,0,0,0,0-.15l.36,0c.61.05,1.22,0,1.83.06l.18.19-.9.35-.42.11A9.5,9.5,0,0,0,15.5,14.92Z" style="fill: #dcf0fb"/>
            <path d="M6.39,17a11,11,0,0,1,1.88-2c0,.07,0,.2,0,.28l.6-.23c-.08.11-.14.21-.21.33a10.59,10.59,0,0,0-2.28,2C6.36,17.27,6.3,17.14,6.39,17Z" style="fill: #bababa"/>
            <path d="M10,15.39l.56-.4c0,.18,0,.37,0,.55a2,2,0,0,1-.61.31C10,15.71,10,15.55,10,15.39Z" style="fill: #3c4864"/>
            <path d="M15.5,14.92a9.5,9.5,0,0,1,1,.58l.42-.11c.27,0,.55,0,.84,0-.11.36-.46.83,0,1l.93.51c-.14.23-.28.44-.4.68a2.19,2.19,0,0,0-.14.21l-1.13.06c.09.38.43.5.79.52-.13.19-.25.38-.37.57l-.44-.33-.23-.18-.27-.21A1.5,1.5,0,0,0,15.8,18c-.33-1-.76-1.9-1.09-2.86.63.32.86,1.08,1.52,1.37a3.34,3.34,0,0,0-.67-1.34A2.16,2.16,0,0,0,15.5,14.92Z" style="fill: #646566"/>
            <path d="M2.85,15.23a2.35,2.35,0,0,1,.46.86c-.33.14-.63.35-.94.51l-.2.08a2.69,2.69,0,0,1,.77-1l-.06-.35Z" style="fill: #484951"/>
            <g>
              <path d="M11.34,15.06l.32.47.21,0c.3.47.47,1,.75,1.49.11.22.41.13.61.19l.06.1h-.61a17.58,17.58,0,0,0,2.2,3.85,4.85,4.85,0,0,1-2-2.21c.15.37.33.74.49,1.1L12.93,20c0,.28-.06.55-.08.81l-.36-.41a7.74,7.74,0,0,1-.33-.78c0-.1,0-.21,0-.33l.31-.14c.09.21.17.43.28.63C12.66,18.11,11.44,16.73,11.34,15.06Z" style="fill: #f0f3ed"/>
              <path d="M12.28,19.39c-.14.1,0,.36.17.24S12.42,19.27,12.28,19.39Z" style="fill: #f0f3ed"/>
            </g>
            <path d="M18.43,15.64c.58-.2,1-.63,1.63-.82-.15.3-.34.58-.52.87l-.92.14Z" style="fill: #888fc7"/>
            <path d="M17.86,15c.19.2.38.39.57.6l.18.19.16.19-.37-.13a1.09,1.09,0,0,1-.21-.06c-.1.16-.18.33-.27.5a.28.28,0,0,1-.07.05c-.51-.17-.16-.65,0-1-.29,0-.57,0-.84,0Z" style="fill: #797879"/>
            <path d="M8.7,15.42a10.59,10.59,0,0,0-2.28,2c-.1.12-.2.21-.31.32a3,3,0,0,0,1.25-.23c-.19.28-.38.56-.59.82s-.44.57-.69.84A7.27,7.27,0,0,1,4.56,21a1.91,1.91,0,0,1,.24.16c.45-.34.88-.7,1.36-1-.42.39-.88.74-1.31,1.1l.15.45c.4.19.8.36,1.21.52l-.64-.49a8.5,8.5,0,0,1,.64-.84l.2-.32c.12-1.32,1.11-2.3,1.84-3.32-.23,0-.44,0-.67,0,0,0,.05-.07.06-.1C8,16.57,8.37,16,8.7,15.42Z" style="fill: #fcfdfe"/>
            <path d="M10,15.86a2,2,0,0,0,.61-.31,32.93,32.93,0,0,0,0,3.62l-.12-.05-.31.26c0-1.11.11-2.2,0-3.3l-.24,0C10,16,10,15.94,10,15.86Z" style="fill: #bec0c7"/>
            <path d="M3.31,16.09,3.48,16l.65.11c-.32.52-.86.94-.91,1.57l-.52-.05a4.33,4.33,0,0,0,.6.92,5.4,5.4,0,0,0,.41.44c0,.08,0,.24,0,.32s0,.3,0,.45.18.27.28.4l-.42,0c-.28-.17-.54-.37-.81-.56,0-.29,0-.58,0-.86-.07.25-.13.52-.19.77l-.28-.06A5.85,5.85,0,0,1,2.65,18c-.24.44-.45.89-.69,1.33l-.13-.31c0-.59.57-1,.79-1.55l-.14-.22-.23-.41c0-.1.08-.2.11-.29C2.68,16.44,3,16.23,3.31,16.09Z" style="fill: #e8e8eb"/>
            <path d="M18.61,15.83l.92-.14c-.13.21-.27.43-.4.64L18.77,16Z" style="fill: #9097b4"/>
            <path d="M4,17.83A11.25,11.25,0,0,0,6,16.1c-.06.15-.1.31-.15.47a4.58,4.58,0,0,0-.6,1.51,1.44,1.44,0,0,0,0-.21,1,1,0,0,0-.92.34C4.25,18.08,4.14,17.95,4,17.83Z" style="fill: #7c7d7b"/>
            <path d="M8.43,17.15c.34-.37.48-.9.88-1.23a5.28,5.28,0,0,1-.15.62A32,32,0,0,0,8,19.6a11.47,11.47,0,0,0,1-2.1l.3,0c-.13.66-.41,1.28-.48,2l-.62.31c-.35.2-.7.42-1,.65a8.68,8.68,0,0,1-.8.44l-.09.05.2-.32c.83-1,1.32-2.25,2.2-3.25l-.36-.08c-.23,0-.44,0-.67,0,0,0,.05-.07.06-.1A1.86,1.86,0,0,0,8.43,17.15Z" style="fill: #cfcec9"/>
            <path d="M17.91,16.33c.09-.17.17-.34.27-.5a1.09,1.09,0,0,0,.21.06A1.91,1.91,0,0,1,17.91,16.33Z" style="fill: #cbc6ba"/>
            <path d="M9.15,16.54a2.75,2.75,0,0,0,.42-.39c-.09.47-.22.92-.33,1.37l-.3,0a11.47,11.47,0,0,1-1,2.1A32,32,0,0,1,9.15,16.54Z" style="fill: #a5a5ad"/>
            <path d="M18.4,15.9l.37.13.36.31c-.11.18-.21.34-.33.52,0,0,0,0,0,0l-.93-.51a.28.28,0,0,0,.07-.05A1.91,1.91,0,0,0,18.4,15.9Z" style="fill: #9a9487"/>
            <path d="M2.48,17.3l.14.22c-.22.54-.75,1-.79,1.55L1.52,19C1.46,18.27,2.23,17.91,2.48,17.3Z" style="fill: #989899"/>
            <path d="M8.25,17.28l.36.08c-.88,1-1.36,2.24-2.2,3.25C6.54,19.28,7.53,18.31,8.25,17.28Z" style="fill: #d4edfc"/>
            <path d="M2.7,17.65l.52.05a3.86,3.86,0,0,0,.72,0l0,.07L3.77,18c-.12.21-.27.42-.4.64l-.06,0A4.33,4.33,0,0,1,2.7,17.65Z" style="fill: #86879f"/>
            <path d="M6.11,17.71a3,3,0,0,0,1.25-.23c-.19.28-.38.56-.59.82a7.83,7.83,0,0,0-1.25.44c.19-.31.54-.57.53-1Z" style="fill: #ccd0e4"/>
            <path d="M3.77,18l.14-.25.12.1c.11.12.22.26.32.38l-.24.24C4,18.28,3.88,18.12,3.77,18Z" style="fill: #d3b678"/>
            <path d="M4.35,18.21a1,1,0,0,1,.92-.34,1.44,1.44,0,0,1,0,.21c0,.18-.09.36-.13.55a4.43,4.43,0,0,1-.77.64,1.39,1.39,0,0,1-.27-.83Z" style="fill: #42444a"/>
            <path d="M5.15,18.63c.38-.19.56-.61.9-.86,0,.4-.33.67-.53,1a7.83,7.83,0,0,1,1.25-.44c-.23.29-.44.57-.69.84a4.05,4.05,0,0,1-2.16,1c-.1-.13-.18-.27-.28-.4s0-.3,0-.45l.2.25.49-.31A4.43,4.43,0,0,0,5.15,18.63Z" style="fill: #79868d"/>
            <path d="M3.77,18c.12.15.24.31.34.47a.92.92,0,0,1-.74.17C3.5,18.39,3.64,18.18,3.77,18Z" style="fill: #fffffe"/>
            <path d="M14.89,20.59a5.59,5.59,0,0,1-1.09-2.76,5.56,5.56,0,0,0,1.64,1.08h-.71a5.39,5.39,0,0,0,.51.83,3.47,3.47,0,0,0-.19.61l0,.13Z" style="fill: #6e7176"/>
            <path d="M17.09,17.85l1.13-.06,0,0L18,18l0,.25-.06.11C17.52,18.34,17.18,18.23,17.09,17.85Z" style="fill: #808284"/>
            <path d="M15.27,17.92l.59.3c0-.05,0-.16-.06-.2a1.5,1.5,0,0,1,.78.19l-.53.24c-.05.17-.1.33-.14.5A5.59,5.59,0,0,1,15.27,17.92Z" style="fill: #a6a6a8"/>
            <path d="M18,18l.2-.18a6.62,6.62,0,0,1,.77,1.5c0,.06,0,.18.05.24a5,5,0,0,1-.74-.94,9.32,9.32,0,0,0,.26,1.16,1,1,0,0,0-.21.1,7.41,7.41,0,0,0-.38-1.64Z" style="fill: #cfcfcf"/>
            <path d="M3.37,18.61a.92.92,0,0,0,.74-.17,1.39,1.39,0,0,0,.27.83l-.49.31-.2-.25c0-.08,0-.24,0-.32a5.4,5.4,0,0,1-.41-.44Z" style="fill: #7a809e"/>
            <path d="M17.87,18.36l.06-.11a7.41,7.41,0,0,1,.38,1.64,5.2,5.2,0,0,0-.7.46h-.23a4.33,4.33,0,0,1,.11-1.43C17.62,18.74,17.75,18.55,17.87,18.36Z" style="fill: #feffff"/>
            <path d="M16.31,19.15l.53-.73.23.18c-.13.28-.25.56-.37.85Z" style="fill: #a29165"/>
            <path d="M17.07,18.6l.44.33a4.33,4.33,0,0,0-.11,1.43h.23c-.54.43-1.33.56-1.7,1.2,0-.51-.6-.7-.86-1.06l0-.13a12.88,12.88,0,0,1,1,.77,1.23,1.23,0,0,0,.09-.15l.16-.22a1.16,1.16,0,0,0,.52-.33l-.2-.17.2-.4s.09-.15.11-.19a2.36,2.36,0,0,0-.28-.21C16.82,19.17,16.94,18.89,17.07,18.6Z" style="fill: #848381"/>
            <path d="M14.73,18.92h.71l.33.16a4.81,4.81,0,0,0,1.1.78l-.2.4c-.1.17-.2.33-.32.5l-.16.22c-.3-.42-.62-.83-.95-1.24A5.39,5.39,0,0,1,14.73,18.92Z" style="fill: #555c68"/>
            <path d="M3.93,20.18a4.05,4.05,0,0,0,2.16-1A7.27,7.27,0,0,1,4.56,21,4.82,4.82,0,0,0,4,20.65a4.76,4.76,0,0,1-.44-.21c0-.07,0-.13-.05-.21Z" style="fill: #9eacbb"/>
            <path d="M12.28,19.39c.14-.12.3.14.17.24S12.14,19.49,12.28,19.39Z" style="fill: #b2b9a4"/>
            <path d="M8.36,20.5a1.91,1.91,0,0,0-.14-.16s0,.1,0,.14a2.79,2.79,0,0,1,.11.4c0,.12,0,.26.05.38.09.59.25,1.17.39,1.74a2.4,2.4,0,0,0,.32.06,20.27,20.27,0,0,0-.37-3.44A7.52,7.52,0,0,1,8.36,20.5Z" style="fill: #8a9ace"/>
            <path d="M7.1,20.43c.35-.23.7-.45,1-.65,0,.19,0,.37.08.56,0,0,0,.1,0,.14a2.79,2.79,0,0,1,.11.4L8,20.78C7.71,20.68,7.41,20.55,7.1,20.43Z" style="fill: #5d6aaf"/>
            <path d="M12.68,21.78a2.41,2.41,0,0,0,.16.2c-.14-.52-.26-1-.36-1.57a7.74,7.74,0,0,1-.33-.78c0,.31-.07.61-.12.91-.13.91-.23,1.83-.35,2.75l.11,0h.45A12.13,12.13,0,0,1,12.68,21.78Z" style="fill: #a1a5aa"/>
            <path d="M15,20.36a3.47,3.47,0,0,1,.19-.61c.32.4.65.82.95,1.24a1.23,1.23,0,0,1-.09.15A12.88,12.88,0,0,0,15,20.36Z" style="fill: #fefefe"/>
            <path d="M16.24,22.08a4.07,4.07,0,0,1,2.2-1.65A6.16,6.16,0,0,0,18.9,20a2.16,2.16,0,0,1,.08-.24l-.29,0-.16.06a1,1,0,0,0-.21.1,5.2,5.2,0,0,0-.7.46c-.54.43-1.33.56-1.7,1.2-.14.31-.26.62-.39.94l.63,0,.43-.24Z" style="fill: #2f323b"/>
            <path d="M6.3,20.87a8.68,8.68,0,0,0,.8-.44c.31.12.61.24.92.35a5.21,5.21,0,0,1-.5,1A4.13,4.13,0,0,0,6.3,20.87Z" style="fill: #5962a1"/>
            <path d="M9.89,21.53a.86.86,0,0,1-.45-1.2,5.28,5.28,0,0,0,.14.55c0-.12,0-.23.08-.35a1.13,1.13,0,0,0,.65.44l-.23.56Z" style="fill: #575752"/>
            <path d="M11.55,20.36l.45.28a1.66,1.66,0,0,1-.6.77c.06-.3.14-.6.23-.88l-.41.57L11,20.93c-.05.19-.11.38-.18.58-.09-.08-.24-.07-.34-.15l-.43.18.23-.56A1.39,1.39,0,0,0,11.55,20.36Z" style="fill: #8e9297"/>
            <path d="M16.34,20.76c.11-.17.22-.33.32-.5l.2.17A1.16,1.16,0,0,1,16.34,20.76Z" style="fill: #b1b1b3"/>
          </g>
          <ellipse cx="10.69" cy="11.85" rx="5" ry="5" style="mix-blend-mode: screen;fill: url(#radial-gradient)"/>
          <path d="M7.16,15.38a5,5,0,1,1,7.07,0A5,5,0,0,1,7.16,15.38Z" style="mix-blend-mode: screen;fill: url(#radial-gradient-2)"/>
          <path d="M7.16,8.31A5,5,0,0,1,9.45,7L8.39,2.92s-7,1.83-6.51,7.23l3.9.8A4.94,4.94,0,0,1,7.16,8.31Z" style="fill: #fff;opacity: 0.64"/>
          <path d="M5.69,11.85a5.23,5.23,0,0,1,.16-1.23L1.57,9.09s-2.43,6.79,2.31,9.45l3.27-3.16A5,5,0,0,1,5.69,11.85Z" style="mix-blend-mode: screen;fill: url(#radial-gradient-3)"/>
        </g>
      </g>
    </g>
  </g>
</svg>
