<svg xmlns="http://www.w3.org/2000/svg" viewBox="0 0 62 67.51" width="62">
  <title>vk</title>
  <g id="Layer_2" data-name="Layer 2">
    <g id="OBJECTS">
      <g>
        <path d="M22.33,66.5C18.48,61,9.12,63.18,7,55.36,6.1,54,4.64,53.24,3.81,51.84c-1.27-2.15-1.75-4.53.6-5.88,3.3-1.9,5.25-.27,5.85,3.18C11,46,9.77,43.06,8.83,40.05c-3-9.67,3.15-23.6,12.44-28a3.13,3.13,0,0,1,2.72.45c3.61,4.9-.5,8.95-1.51,13.34-1.12,4.85-3.71,10.07,3,13.08,6.47,2.92,14.17.33,17.18-5.79,3.14-6.39-.88-10.11-5.33-13.53-4-3.09-9.86-2.83-13.25-7.14.89-5.94,5.23-5.5,9.41-4.87C46.46,9.55,56,22.32,54.81,36,54,45.32,41.36,53.7,27.51,53.88c3.9,2.83,7.1,5.81,4.71,11C29,66.24,26.1,68.92,22.33,66.5Z" style="fill: #6fc1ef;fill-rule: evenodd"/>
        <path d="M31.94,64.43c-.66-7.44-5.47-10.13-12.32-10,.38-4.24,3.19-3.41,5-2.79a17.27,17.27,0,0,0,13.76-1.42c6.54-3.56,15.56-6.69,14.11-16.86-2.27-15.85-10.16-24-22.07-24.17A6,6,0,0,0,24.3,12.9h0c-11.19,5.76-16,16.86-12.09,27.94a9.67,9.67,0,0,1,.54,2.76c.08,1.87,0,3.75,0,5.49-3.59,1.82-4.93-4.4-7.4-2.15C2.23,49.79,6.92,52.39,7,55.36c-7.93-2.12-8-7.45-5.63-13.78a28.2,28.2,0,0,0,3.9-17.21l1.43-2.06c4.6-3.65,4.75-9.95,8.44-14.15C21.87,4.17,29.71,3.5,37,3.31c8-.2,13.11,6.61,17.71,12.76C58.86,26,62.16,35.94,57,46.55,50.14,52.71,42.6,58,35.49,63.77,34.42,64.57,33.32,65.31,31.94,64.43Z" style="fill: #7bc5f8;fill-rule: evenodd"/>
        <path d="M54.93,45.42c6.2-4.31,1.92-10.2,1.83-15.19-.08-4.52-2.45-9-3.8-13.5-1.16-4.33-4-8.42-1.9-13.22l3.83-.14c4.51,6.29,2.44,14.39,5.77,21,3.64,9.52-1.4,18.88-.63,28.4.18,2.31-3.35,2.43-5.31,3.18-3.77,1.46-7.33,2.31-8.94,7.21C44.55,66.91,27,68.83,22.33,66.5l9.6-2.07,2-1.77C42.05,59.36,47.34,55,54.93,45.42Z" style="fill: #c2ecff;fill-rule: evenodd"/>
        <path d="M51.07,3.51c2.75,4.1,1.75,8.74,1.9,13.22C44.89,7.51,36.37.21,23.12,7.94c-2.25,1.31-5.54.82-8.35,1.16L14,8.28a2.42,2.42,0,0,1,.8-3C18.35,1.47,22.23-1,27.56,2.13c2.85,1.7,5.39,0,8.16-.6C40.92.49,46.63-2.16,51.07,3.51Z" style="fill: #9cdcff;fill-rule: evenodd"/>
        <path d="M60.66,24.37c-5.6-6-5.22-13.63-5.77-21,5.92-.28,7.36,2.72,6.51,8.15C60.74,15.73,60.88,20.08,60.66,24.37Z" style="fill: #e1f7ff;fill-rule: evenodd"/>
        <path d="M5.26,24.37c3.09,8.78,1.58,15.46-3.9,17.21C-1.65,34.87,4.53,30.24,5.26,24.37Z" style="fill: #9cdcff;fill-rule: evenodd"/>
        <path d="M14.77,9.1c-.64,5.66-1.67,11.08-8.08,13.22.1-4.26,2.47-7.68,4.2-11.35,1.08-1,1.63-3,3.77-2Z" style="fill: #9cdcff;fill-rule: evenodd"/>
        <path d="M14.66,9l-3.77,2c0-2.77-.12-5.64,3.88-5.68C14.74,6.53,14.7,7.77,14.66,9Z" style="fill: #c2ecff;fill-rule: evenodd"/>
        <path d="M24.3,12.9C28.87,12.84,33,14.53,37,16.47c8.56,4.23,11.78,11.92,8,18.21-5.09,8.37-16.83,11.51-23.83,5.74-4.58-3.78-2.83-9.29-1.43-14.13C21,21.76,22.74,17.36,24.3,12.9Z" style="fill: #60a7c6;fill-rule: evenodd"/>
        <path d="M54.93,45.42c-4.72,8.55-9.76,16.7-21,17.24Z" style="fill: #afe5f9;fill-rule: evenodd"/>
      </g>
      <path d="M54.1,27.56c-.55-.4-2.51-.4-4.45-.4a28.15,28.15,0,0,0-4.43.22c-.42.16-1.38,2.47-2.61,4.83-1.42,2.67-3.14,5.26-4.23,5.22-1.44,0-1.09-4.39-1-7.65,0-2.12-.32-2.81-.63-3a12.05,12.05,0,0,0-2.81-1s-6.19-.47-7.06,2.2c1.19.16,3.22-.2,2.43,8.07-.06.41-1,3.8-3.82-.79C24.76,34.1,22,27.2,21,27.16c-3.18-.06-6.33-.2-7.42.4S15,32.91,19.06,39.26c3.3,5.22,6.8,9.27,12.87,10.28,1.15.12,4.11.24,5.06-.2.63-.3-.16-4.79,2-5.24,1-.18,4.65,4.7,6,5.24a13.62,13.62,0,0,0,4.61.4c2.06-.06,4.41.2,4.63-1.21.51-3.1-6.25-7.14-6.43-9-.16-1.38,2.47-3.9,3.8-5.85,1.66-2.35,3.48-5.18,2.45-6.07Z" style="fill: #fff;fill-rule: evenodd"/>
    </g>
  </g>
</svg>
